<?xml version="1.0" standalone="no"?>
<!DOCTYPE svg PUBLIC "-//W3C//DTD SVG 20010904//EN"
 "http://www.w3.org/TR/2001/REC-SVG-20010904/DTD/svg10.dtd">
<svg version="1.0" xmlns="http://www.w3.org/2000/svg"
 width="500.000000pt" height="500.000000pt" viewBox="0 0 500.000000 500.000000"
 preserveAspectRatio="xMidYMid meet">

<g transform="translate(0.000000,500.000000) scale(0.100000,-0.100000)"
fill="#000000" stroke="none">
<path d="M100 3925 l0 -1075 30 7 c23 4 30 2 30 -11 0 -9 -5 -16 -11 -16 -5 0
-7 5 -4 10 3 6 1 10 -4 10 -6 0 -11 -5 -11 -10 0 -6 -6 -9 -12 -8 -10 2 -14
-50 -16 -229 -1 -153 1 -233 8 -233 5 0 10 -7 10 -15 0 -8 -4 -15 -10 -15 -14
0 -14 -759 0 -795 7 -17 7 -24 0 -20 -7 4 -10 -111 -10 -334 0 -377 -6 -346
63 -341 27 2 36 -13 15 -26 -7 -4 -8 -3 -4 4 4 7 2 12 -3 12 -6 0 -11 -5 -11
-10 0 -7 -6 -7 -18 -1 -24 13 -42 -4 -42 -36 0 -20 5 -23 43 -23 28 0 37 -3
28 -9 -8 -5 -20 -7 -27 -4 -6 2 -15 -1 -19 -6 -3 -6 -11 -9 -16 -5 -6 3 -9
-45 -8 -132 1 -120 3 -140 20 -157 10 -12 19 -15 19 -9 0 7 5 12 10 12 6 0 10
-14 10 -31 0 -26 -3 -29 -14 -20 -11 9 -15 9 -19 -1 -3 -7 -6 -2 -7 12 -1 23
-2 23 -10 5 -5 -11 -9 -80 -9 -152 l-1 -133 660 0 660 0 0 805 0 805 43 1 c23
1 66 1 95 -1 32 -1 52 2 52 9 0 15 27 14 33 -1 4 -10 8 -9 17 2 8 11 13 12 16
3 4 -9 82 -12 316 -13 303 0 312 -1 386 -25 42 -14 85 -25 95 -25 10 0 16 -4
13 -9 -3 -5 14 -21 39 -36 25 -14 74 -53 110 -86 36 -34 69 -58 75 -54 7 5 11
0 9 -11 -2 -11 19 -53 46 -94 27 -41 79 -144 117 -229 38 -85 72 -158 76 -161
4 -3 8 -14 10 -25 6 -39 162 -342 230 -445 79 -121 97 -141 118 -133 12 4 14
0 9 -19 -11 -43 165 -207 308 -288 31 -17 57 -28 57 -23 0 4 5 1 10 -7 6 -9
10 -11 10 -3 0 15 31 5 45 -14 6 -8 44 -24 85 -35 117 -33 347 -31 496 4 227
53 460 169 593 295 l72 68 -75 235 c-40 129 -90 288 -111 353 -36 116 -37 118
-56 101 -10 -9 -19 -23 -19 -31 0 -7 -5 -13 -11 -13 -6 0 -29 -13 -52 -29
-135 -95 -304 -69 -408 62 -24 30 -109 189 -201 374 -166 337 -228 438 -324
522 -27 23 -62 50 -78 58 -15 8 -24 18 -20 22 5 5 48 20 96 35 48 14 140 53
205 85 515 258 770 753 731 1417 -25 428 -150 751 -385 995 -228 236 -542 375
-928 408 -77 7 -684 11 -1692 11 l-1573 0 0 -1075z m2390 1030 c0 -8 -7 -15
-16 -15 -14 0 -14 3 -4 15 7 8 14 15 16 15 2 0 4 -7 4 -15z m-1970 -35 c0 -5
-5 -10 -11 -10 -5 0 -7 5 -4 10 3 6 8 10 11 10 2 0 4 -4 4 -10z m55 -10 c3 -5
1 -10 -4 -10 -6 0 -11 5 -11 10 0 6 2 10 4 10 3 0 8 -4 11 -10z m-48 -36 c-3
-3 -12 -4 -19 -1 -8 3 -5 6 6 6 11 1 17 -2 13 -5z m-354 -163 c17 -6 17 -8 3
-20 -9 -7 -13 -17 -10 -22 3 -5 0 -9 -5 -9 -6 0 -11 6 -11 13 0 9 -3 8 -9 -2
-7 -11 -11 -10 -19 6 -18 33 9 51 51 34z m1907 -221 c0 -5 -9 -10 -21 -10 -11
0 -17 5 -14 10 3 6 13 10 21 10 8 0 14 -4 14 -10z m-500 -30 c0 -5 -4 -10 -10
-10 -5 0 -10 5 -10 10 0 6 5 10 10 10 6 0 10 -4 10 -10z m100 0 c0 -5 -4 -10
-10 -10 -5 0 -10 5 -10 10 0 6 5 10 10 10 6 0 10 -4 10 -10z m-170 -8 c0 -4
-13 -7 -30 -7 -16 -1 -30 3 -30 7 0 4 14 8 30 8 17 0 30 -3 30 -8z m570 -57
c0 -8 -9 -15 -20 -15 -20 0 -26 11 -13 23 12 13 33 7 33 -8z m-503 -11 c-3 -3
-12 -4 -19 -1 -8 3 -5 6 6 6 11 1 17 -2 13 -5z m1483 -4 c0 -5 -5 -10 -11 -10
-5 0 -7 5 -4 10 3 6 8 10 11 10 2 0 4 -4 4 -10z m-1485 -20 c-3 -5 -11 -10
-16 -10 -6 0 -7 5 -4 10 3 6 11 10 16 10 6 0 7 -4 4 -10z m-5 -60 c0 -11 -4
-20 -8 -20 -4 0 -8 9 -9 20 -1 11 2 20 8 20 5 0 9 -9 9 -20z m1530 1 c0 -6 -4
-13 -10 -16 -5 -3 -10 1 -10 9 0 9 5 16 10 16 6 0 10 -4 10 -9z m-90 -5 c0 -3
-4 -8 -10 -11 -5 -3 -10 -1 -10 4 0 6 5 11 10 11 6 0 10 -2 10 -4z m-970 -30
c0 -11 -19 -15 -25 -6 -3 5 1 10 9 10 9 0 16 -2 16 -4z m-599 -48 c10 -13 31
-46 46 -75 26 -51 27 -53 8 -73 -15 -17 -27 -20 -57 -16 -38 5 -78 25 -78 39
0 4 11 0 25 -9 13 -8 32 -14 42 -12 14 3 11 8 -14 21 -18 10 -35 28 -39 42 -3
13 -12 29 -20 36 -19 16 -18 25 8 49 28 26 55 25 79 -2z m472 15 c-7 -2 -19
-2 -25 0 -7 3 -2 5 12 5 14 0 19 -2 13 -5z m638 -20 c38 -22 42 -36 17 -62
-19 -22 -49 -21 -72 0 -6 5 -18 9 -28 9 -10 0 -18 4 -18 9 0 14 26 31 36 23 5
-4 6 -3 2 2 -9 10 9 36 24 36 6 0 23 -8 39 -17z m-931 -43 c0 -11 -7 -20 -15
-20 -15 0 -21 21 -8 33 12 13 23 7 23 -13z m150 6 c0 -3 -4 -8 -10 -11 -5 -3
-10 -1 -10 4 0 6 5 11 10 11 6 0 10 -2 10 -4z m1430 -10 c0 -3 -4 -8 -10 -11
-5 -3 -10 -1 -10 4 0 6 5 11 10 11 6 0 10 -2 10 -4z m-1853 -28 c-3 -8 -6 -5
-6 6 -1 11 2 17 5 13 3 -3 4 -12 1 -19z m1253 -7 c-10 -21 -30 -37 -30 -26 0
14 21 45 31 45 6 0 6 -7 -1 -19z m-815 -41 c3 -5 1 -10 -4 -10 -6 0 -11 5 -11
10 0 6 2 10 4 10 3 0 8 -4 11 -10z m55 0 c0 -5 -4 -10 -10 -10 -5 0 -10 5 -10
10 0 6 5 10 10 10 6 0 10 -4 10 -10z m-710 -10 c0 -5 -2 -10 -4 -10 -3 0 -8 5
-11 10 -3 6 -1 10 4 10 6 0 11 -4 11 -10z m100 -20 c0 -5 -4 -10 -10 -10 -5 0
-10 5 -10 10 0 6 5 10 10 10 6 0 10 -4 10 -10z m1728 -12 c-6 -18 -28 -21 -28
-4 0 9 7 16 16 16 9 0 14 -5 12 -12z m282 -18 c0 -5 -4 -10 -10 -10 -5 0 -10
5 -10 10 0 6 5 10 10 10 6 0 10 -4 10 -10z m-560 -10 c0 -5 -4 -10 -10 -10 -5
0 -10 5 -10 10 0 6 5 10 10 10 6 0 10 -4 10 -10z m-1052 -60 c9 0 256 -1 547
-1 622 0 744 -7 846 -49 87 -35 134 -67 194 -131 141 -151 186 -451 103 -684
-45 -124 -167 -251 -284 -294 -112 -43 -206 -51 -560 -51 -199 0 -334 -4 -334
-9 0 -5 10 -12 23 -14 l22 -4 -23 -2 c-12 0 -25 6 -29 14 -4 13 -23 16 -102
14 -53 -1 -102 -6 -108 -11 -7 -6 -13 -23 -13 -39 0 -15 -4 -31 -10 -34 -6 -4
-10 12 -10 40 l0 46 -52 -1 c-29 -1 -135 -1 -235 -1 l-183 1 0 171 c0 111 -3
168 -10 164 -13 -8 -13 8 0 21 6 6 11 170 12 429 l3 420 30 3 c16 2 33 9 37
15 6 9 10 9 16 0 4 -6 26 -12 50 -11 31 0 42 4 43 17 1 14 2 13 6 -1 2 -10 12
-18 21 -18z m1402 20 c0 -5 -4 -10 -10 -10 -5 0 -10 5 -10 10 0 6 5 10 10 10
6 0 10 -4 10 -10z m-1831 -9 c9 -6 10 -11 2 -15 -6 -4 -11 -2 -11 4 0 6 -4 8
-10 5 -5 -3 -10 -1 -10 4 0 13 10 14 29 2z m3001 -10 c0 -6 -4 -13 -10 -16 -5
-3 -10 1 -10 9 0 9 5 16 10 16 6 0 10 -4 10 -9z m-2959 -15 c5 3 9 0 9 -6 0
-7 -7 -9 -16 -6 -9 3 -18 6 -20 6 -3 0 -2 5 2 12 6 9 9 9 12 0 2 -7 8 -10 13
-6z m-1081 -50 c0 -9 -7 -12 -20 -9 -11 3 -20 9 -20 14 0 5 9 9 20 9 11 0 20
-6 20 -14z m50 0 c0 -9 -7 -12 -20 -9 -11 3 -20 9 -20 14 0 5 9 9 20 9 11 0
20 -6 20 -14z m21 -9 c-10 -9 -11 -8 -5 6 3 10 9 15 12 12 3 -3 0 -11 -7 -18z
m909 7 c0 -8 -4 -12 -10 -9 -5 3 -10 10 -10 16 0 5 5 9 10 9 6 0 10 -7 10 -16z
m17 -6 c-3 -8 -6 -5 -6 6 -1 11 2 17 5 13 3 -3 4 -12 1 -19z m42 1 c-15 -9
-32 -2 -24 11 3 5 13 6 21 3 12 -4 13 -8 3 -14z m3031 -19 c0 -5 -4 -10 -10
-10 -5 0 -10 5 -10 10 0 6 5 10 10 10 6 0 10 -4 10 -10z m-2920 -9 c0 -6 -4
-12 -8 -15 -5 -3 -9 1 -9 9 0 8 4 15 9 15 4 0 8 -4 8 -9z m-1150 -15 c0 -9 -7
-12 -20 -9 -11 3 -20 9 -20 14 0 5 9 9 20 9 11 0 20 -6 20 -14z m80 5 c0 -6
-5 -13 -12 -17 -7 -4 -8 -3 -4 4 4 7 2 12 -3 12 -6 0 -11 -4 -11 -8 0 -4 -9
-8 -20 -8 -11 0 -20 6 -20 13 0 8 13 13 35 13 19 0 35 -4 35 -9z m2960 -21 c0
-5 -5 -10 -11 -10 -5 0 -7 5 -4 10 3 6 8 10 11 10 2 0 4 -4 4 -10z m-1893 -16
c-3 -3 -12 -4 -19 -1 -8 3 -5 6 6 6 11 1 17 -2 13 -5z m3 -22 c0 -5 -7 -9 -15
-9 -8 0 -15 4 -15 9 0 4 7 8 15 8 8 0 15 -4 15 -8z m-1183 -34 c-3 -8 -6 -5
-6 6 -1 11 2 17 5 13 3 -3 4 -12 1 -19z m27 10 c-6 -10 -4 -10 7 -3 24 18 69
18 69 1 0 -9 -5 -16 -11 -16 -5 0 -7 5 -4 10 3 6 1 10 -4 10 -6 0 -11 -4 -11
-8 0 -4 -13 -9 -30 -10 -21 -2 -30 2 -30 13 0 8 5 15 11 15 5 0 7 -6 3 -12z
m1196 -18 c0 -5 -2 -10 -4 -10 -3 0 -8 5 -11 10 -3 6 -1 10 4 10 6 0 11 -4 11
-10z m-110 -18 c0 -11 -3 -12 -13 -3 -10 8 -17 7 -26 -2 -9 -9 -14 -9 -20 2
-5 8 -14 10 -21 6 -9 -5 -11 -4 -6 4 11 17 86 11 86 -7z m-1000 -11 c0 -6 -5
-13 -12 -17 -7 -4 -8 -3 -4 4 4 7 2 12 -3 12 -6 0 -11 -4 -11 -10 0 -15 -40
-12 -41 3 0 9 -2 9 -6 -1 -4 -10 -8 -10 -21 0 -12 10 -14 10 -8 1 4 -7 2 -13
-3 -13 -6 0 -11 7 -11 15 0 12 13 15 60 15 33 0 60 -4 60 -9z m1110 -15 c0 -3
-4 -8 -10 -11 -5 -3 -10 -1 -10 4 0 6 5 11 10 11 6 0 10 -2 10 -4z m-254 -41
c-3 -8 -10 -15 -16 -15 -14 0 -12 37 3 43 15 5 21 -8 13 -28z m61 3 c-3 -7 -5
-2 -5 12 0 14 2 19 5 13 2 -7 2 -19 0 -25z m-200 0 c-3 -8 -6 -5 -6 6 -1 11 2
17 5 13 3 -3 4 -12 1 -19z m33 7 c0 -8 -4 -15 -10 -15 -5 0 -10 7 -10 15 0 8
5 15 10 15 6 0 10 -7 10 -15z m17 -7 c-3 -8 -6 -5 -6 6 -1 11 2 17 5 13 3 -3
4 -12 1 -19z m33 1 c0 -5 -4 -9 -8 -9 -5 0 -9 7 -9 15 0 8 4 12 9 9 4 -3 8 -9
8 -15z m-896 -34 c-4 -8 -10 -15 -15 -15 -4 0 -6 7 -3 15 4 8 10 15 15 15 4 0
6 -7 3 -15z m84 8 c-10 -2 -18 -8 -18 -13 0 -5 -13 -8 -30 -8 -27 1 -37 8 -26
19 2 2 24 5 48 5 24 1 35 0 26 -3z m1139 -9 c-3 -3 -12 -4 -19 -1 -8 3 -5 6 6
6 11 1 17 -2 13 -5z m-862 -23 c3 -5 1 -12 -5 -16 -5 -3 -10 1 -10 9 0 18 6
21 15 7z m122 -5 c-5 -16 -107 -14 -107 1 0 9 17 12 55 11 32 -2 54 -7 52 -12z
m743 10 c0 -11 -19 -15 -25 -6 -3 5 1 10 9 10 9 0 16 -2 16 -4z m-1223 -48
c-3 -8 -6 -5 -6 6 -1 11 2 17 5 13 3 -3 4 -12 1 -19z m83 7 c0 -8 -5 -15 -11
-15 -5 0 -7 5 -4 10 3 6 1 10 -4 10 -6 0 -11 -4 -11 -8 0 -4 -9 -8 -20 -9 -11
-1 -20 4 -20 13 0 9 11 14 35 14 24 0 35 -5 35 -15z m720 11 c0 -2 -7 -7 -16
-10 -8 -3 -12 -2 -9 4 6 10 25 14 25 6z m74 -5 c3 -5 -1 -12 -10 -15 -10 -4
-14 -15 -12 -33 2 -14 -2 -28 -9 -30 -7 -3 -10 10 -8 39 2 24 4 44 4 46 3 6
30 1 35 -7z m303 3 c-3 -3 -12 -4 -19 -1 -8 3 -5 6 6 6 11 1 17 -2 13 -5z
m3163 -10 c0 -8 -4 -12 -10 -9 -5 3 -10 10 -10 16 0 5 5 9 10 9 6 0 10 -7 10
-16z m-3973 -49 c-1 -25 -6 -45 -12 -45 -5 0 -3 -5 5 -10 13 -8 13 -10 -1 -10
-13 0 -16 11 -16 55 0 39 3 55 13 55 9 0 12 -14 11 -45z m39 -10 c0 -35 -4
-54 -10 -52 -14 5 -15 107 -1 107 6 0 11 -24 11 -55z m48 33 c-3 -13 -5 -37
-5 -54 0 -20 -5 -31 -14 -31 -10 0 -14 12 -12 44 1 23 6 43 10 43 5 0 5 5 2
10 -3 6 1 10 9 10 10 0 13 -7 10 -22z m726 12 c0 -5 -4 -10 -10 -10 -5 0 -10
5 -10 10 0 6 5 10 10 10 6 0 10 -4 10 -10z m-383 -6 c-3 -3 -12 -4 -19 -1 -8
3 -5 6 6 6 11 1 17 -2 13 -5z m3 -24 c0 -5 -4 -10 -10 -10 -5 0 -10 5 -10 10
0 6 5 10 10 10 6 0 10 -4 10 -10z m377 4 c-3 -3 -12 -4 -19 -1 -8 3 -5 6 6 6
11 1 17 -2 13 -5z m-1 -34 c0 -11 -5 -20 -11 -20 -6 0 -11 9 -11 20 0 11 5 20
11 20 6 0 11 -9 11 -20z m-1096 -8 c0 -15 -2 -15 -11 -2 -8 11 -12 12 -16 3
-5 -14 -63 -18 -63 -5 0 14 7 17 49 19 33 2 41 -1 41 -15z m726 1 c-3 -20 -22
-28 -31 -14 -3 6 0 11 7 11 9 0 9 3 -2 10 -12 8 -11 10 7 10 14 0 20 -5 19
-17z m-752 -54 c-7 -11 -64 -12 -64 -1 0 15 9 19 40 14 16 -2 27 -8 24 -13z
m23 -1 c-3 -8 -6 -5 -6 6 -1 11 2 17 5 13 3 -3 4 -12 1 -19z m-100 -10 c-3 -8
-6 -5 -6 6 -1 11 2 17 5 13 3 -3 4 -12 1 -19z m433 18 c0 -2 -7 -6 -15 -10 -8
-3 -15 -1 -15 4 0 6 7 10 15 10 8 0 15 -2 15 -4z m37 -2 c-3 -3 -12 -4 -19 -1
-8 3 -5 6 6 6 11 1 17 -2 13 -5z m493 -10 c0 -8 -19 -13 -24 -6 -3 5 1 9 9 9
8 0 15 -2 15 -3z m115 -13 c-9 -9 -55 -8 -55 0 0 10 31 17 48 11 7 -2 10 -7 7
-11z m49 -3 c-3 -4 -12 -8 -20 -8 -8 0 -13 4 -10 8 3 5 12 9 20 9 8 0 13 -4
10 -9z m-734 -18 c0 -5 -6 -10 -12 -10 -9 0 -8 -4 2 -10 13 -8 12 -10 -2 -10
-11 0 -18 8 -18 20 0 11 7 20 15 20 8 0 15 -4 15 -10z m38 -15 c-3 -16 -1 -25
7 -25 7 0 11 10 10 25 -2 15 2 25 10 25 8 0 12 -10 10 -25 -1 -15 3 -25 10
-25 8 0 10 9 7 25 -3 17 0 25 9 25 10 0 14 -15 14 -55 l0 -55 -75 1 c-41 1
-65 4 -52 6 22 4 26 17 25 81 0 13 6 22 15 22 10 0 13 -7 10 -25z m826 3 c-1
-13 -3 -26 -3 -30 -1 -5 -5 -8 -9 -8 -4 0 -8 14 -7 30 0 17 5 30 11 30 6 0 10
-10 8 -22z m-1174 -7 c0 -14 -5 -18 -20 -14 -25 7 -26 20 -2 26 9 3 18 5 20 6
1 0 2 -8 2 -18z m-50 -5 c0 -9 -7 -12 -20 -9 -11 3 -20 9 -20 14 0 5 9 9 20 9
11 0 20 -6 20 -14z m80 0 c0 -3 -4 -8 -10 -11 -5 -3 -10 -1 -10 4 0 6 5 11 10
11 6 0 10 -2 10 -4z m280 -26 c0 -5 -4 -10 -9 -10 -6 0 -13 5 -16 10 -3 6 1
10 9 10 9 0 16 -4 16 -10z m-334 -10 c18 7 24 6 24 -4 0 -8 -13 -16 -30 -18
-16 -3 -30 -1 -30 3 0 5 -7 6 -15 3 -8 -4 -15 -1 -15 4 0 12 34 21 38 10 2 -4
14 -3 28 2z m52 -15 c-3 -3 -9 2 -12 12 -6 14 -5 15 5 6 7 -7 10 -15 7 -18z
m319 -41 c-3 -3 -12 -4 -19 -1 -8 3 -5 6 6 6 11 1 17 -2 13 -5z m79 -1 c-11
-11 -66 -12 -66 -2 0 5 17 9 37 9 20 0 33 -3 29 -7z m-122 -38 c-4 -8 -1 -15
5 -15 6 0 11 7 11 15 0 8 5 15 10 15 6 0 10 -27 10 -61 l0 -61 -27 7 c-16 4
-29 8 -31 10 -7 7 -9 55 -2 55 4 0 6 11 5 25 -2 16 2 25 11 25 8 0 11 -6 8
-15z m81 -47 c2 -47 -1 -55 -14 -51 -14 4 -14 3 -1 -9 20 -18 23 -149 3 -141
-7 3 -13 14 -13 24 0 10 -4 19 -9 19 -5 0 -8 -11 -5 -25 3 -18 1 -23 -10 -19
-16 6 -16 104 0 104 9 0 10 -4 13 -36 0 -8 5 -13 10 -9 5 3 7 18 4 33 -11 50
-3 174 11 169 5 -2 10 -28 11 -59z m-360 33 c3 -5 0 -13 -6 -17 -8 -4 -9 -3
-5 4 4 7 1 12 -9 12 -9 0 -13 -4 -10 -10 3 -5 2 -10 -4 -10 -5 0 -11 6 -14 13
-4 10 -7 10 -18 0 -18 -18 -49 -16 -49 2 0 11 13 15 54 15 30 0 57 -4 61 -9z
m873 -16 c0 -14 -4 -28 -9 -31 -5 -3 -9 9 -9 25 0 17 4 31 9 31 5 0 9 -11 9
-25z m2292 5 c0 -5 -5 -10 -11 -10 -5 0 -7 5 -4 10 3 6 8 10 11 10 2 0 4 -4 4
-10z m-3220 -41 c0 -4 8 -10 18 -12 9 -3 3 -5 -14 -6 -19 -1 -31 4 -31 12 0 8
6 14 14 14 7 0 13 -4 13 -8z m47 5 c-3 -3 -12 -4 -19 -1 -8 3 -5 6 6 6 11 1
17 -2 13 -5z m-87 -14 c0 -5 -5 -10 -11 -10 -5 0 -7 5 -4 10 3 6 8 10 11 10 2
0 4 -4 4 -10z m500 -5 c-7 -9 -8 -15 -2 -15 11 0 11 -25 0 -36 -4 -3 -12 -3
-18 1 -9 6 -9 10 1 16 9 6 10 9 2 9 -9 0 -11 15 -4 38 1 1 8 2 17 2 14 0 14
-3 4 -15z m-130 -35 c0 -5 -4 -10 -9 -10 -6 0 -13 5 -16 10 -3 6 1 10 9 10 9
0 16 -4 16 -10z m517 -12 c-3 -8 -6 -5 -6 6 -1 11 2 17 5 13 3 -3 4 -12 1 -19z
m53 6 c0 -8 -4 -12 -10 -9 -5 3 -10 10 -10 16 0 5 5 9 10 9 6 0 10 -7 10 -16z
m17 -6 c-3 -8 -6 -5 -6 6 -1 11 2 17 5 13 3 -3 4 -12 1 -19z m33 7 c0 -8 -4
-15 -8 -15 -5 0 -9 7 -9 15 0 8 4 15 9 15 4 0 8 -7 8 -15z m-583 -1 c-3 -3
-12 -4 -19 -1 -8 3 -5 6 6 6 11 1 17 -2 13 -5z m100 -34 c-1 -13 -8 -20 -22
-20 -16 0 -17 2 -5 10 8 5 11 10 5 10 -5 0 -3 5 5 10 20 13 19 13 17 -10z
m742 17 c-2 -1 -12 -9 -21 -16 -15 -12 -18 -11 -18 3 0 10 8 16 22 16 12 0 19
-1 17 -3z m-1139 -16 c0 -6 -5 -13 -12 -17 -7 -4 -8 -3 -4 4 4 7 1 12 -9 12
-9 0 -13 -5 -10 -11 9 -13 -27 -8 -37 6 -5 6 -8 5 -8 -2 0 -7 -9 -13 -20 -13
-11 0 -20 7 -20 15 0 12 13 15 60 15 33 0 60 -4 60 -9z m267 3 c-3 -3 -12 -4
-19 -1 -8 3 -5 6 6 6 11 1 17 -2 13 -5z m173 -14 c0 -11 -4 -20 -9 -20 -5 0
-11 9 -14 20 -3 13 0 20 9 20 8 0 14 -9 14 -20z m37 0 c-1 -11 -7 -20 -14 -20
-6 0 -11 9 -10 20 1 11 7 20 14 20 6 0 11 -9 10 -20z m40 0 c-1 -11 -7 -20
-14 -20 -6 0 -11 9 -10 20 1 11 7 20 14 20 6 0 11 -9 10 -20z m-250 -44 c1
-32 -2 -43 -11 -40 -14 6 -15 84 -1 84 6 0 11 -20 12 -44z m3193 40 c0 -3 -4
-8 -10 -11 -5 -3 -10 -1 -10 4 0 6 5 11 10 11 6 0 10 -2 10 -4z m-3550 -43 c0
-7 -9 -13 -20 -13 -12 0 -17 5 -14 13 3 8 11 14 19 14 8 0 15 -6 15 -14z m50
0 c0 -7 -9 -13 -20 -13 -19 0 -26 11 -15 22 10 10 35 4 35 -9z m30 2 c0 -8 -2
-15 -4 -15 -2 0 -6 7 -10 15 -3 8 -1 15 4 15 6 0 10 -7 10 -15z m450 -15 c0
-19 -5 -30 -14 -30 -10 0 -14 10 -14 30 1 18 6 30 15 30 8 0 13 -12 13 -30z
m36 0 c0 -17 -6 -30 -13 -30 -8 0 -13 13 -13 30 0 19 5 30 14 30 9 0 13 -11
12 -30z m40 10 c0 -11 -6 -20 -13 -20 -7 0 -13 9 -13 20 0 11 6 20 13 20 7 0
13 -9 13 -20z m2944 -10 c0 -5 -4 -10 -10 -10 -5 0 -10 5 -10 10 0 6 5 10 10
10 6 0 10 -4 10 -10z m-3119 -43 c-1 -4 -3 -7 -6 -7 -3 0 -17 0 -32 1 l-28 1
25 8 c28 9 42 8 41 -3z m-74 -3 c-3 -3 -12 -4 -19 -1 -8 3 -5 6 6 6 11 1 17
-2 13 -5z m173 -4 c0 -5 -7 -10 -15 -10 -8 0 -15 5 -15 10 0 6 7 10 15 10 8 0
15 -4 15 -10z m40 0 c0 -5 -7 -10 -15 -10 -8 0 -15 5 -15 10 0 6 7 10 15 10 8
0 15 -4 15 -10z m40 0 c0 -5 -4 -10 -9 -10 -6 0 -13 5 -16 10 -3 6 1 10 9 10
9 0 16 -4 16 -10z m2850 6 c0 -11 -19 -15 -25 -6 -3 5 1 10 9 10 9 0 16 -2 16
-4z m90 -6 c0 -5 -2 -10 -4 -10 -3 0 -8 5 -11 10 -3 6 -1 10 4 10 6 0 11 -4
11 -10z m100 0 c0 -5 -2 -10 -4 -10 -3 0 -8 5 -11 10 -3 6 -1 10 4 10 6 0 11
-4 11 -10z m-3610 -24 c0 -15 -3 -16 -15 -6 -12 10 -18 10 -30 0 -12 -10 -15
-10 -15 0 0 7 -7 10 -15 6 -8 -3 -15 -2 -15 3 0 14 8 16 49 16 34 0 41 -3 41
-19z m27 2 c-3 -8 -6 -5 -6 6 -1 11 2 17 5 13 3 -3 4 -12 1 -19z m1133 18 c0
-11 -19 -15 -25 -6 -3 5 1 10 9 10 9 0 16 -2 16 -4z m40 -6 c0 -5 -4 -10 -9
-10 -6 0 -13 5 -16 10 -3 6 1 10 9 10 9 0 16 -4 16 -10z m-5 -39 c-3 -22 -24
-26 -22 -3 0 10 6 19 13 19 6 0 11 -7 9 -16z m-45 -1 c0 -5 -7 -10 -16 -10 -8
0 -12 5 -9 10 3 6 10 10 16 10 5 0 9 -4 9 -10z m1997 4 c-3 -3 -12 -4 -19 -1
-8 3 -5 6 6 6 11 1 17 -2 13 -5z m273 -4 c0 -5 -7 -10 -15 -10 -8 0 -15 5 -15
10 0 6 7 10 15 10 8 0 15 -4 15 -10z m90 0 c0 -5 -4 -10 -10 -10 -5 0 -10 5
-10 10 0 6 5 10 10 10 6 0 10 -4 10 -10z m110 6 c0 -11 -19 -15 -25 -6 -3 5 1
10 9 10 9 0 16 -2 16 -4z m-200 -50 c0 -11 -19 -15 -25 -6 -3 5 1 10 9 10 9 0
16 -2 16 -4z m100 0 c0 -11 -19 -15 -25 -6 -3 5 1 10 9 10 9 0 16 -2 16 -4z
m-2420 -54 c0 -4 -9 -8 -20 -8 -11 0 -20 4 -20 8 0 4 9 8 20 8 11 0 20 -4 20
-8z m78 -4 c-2 -5 -7 -9 -11 -9 -4 1 -18 1 -32 1 -14 0 -25 4 -25 8 0 5 16 9
35 9 20 0 34 -4 33 -9z m2342 8 c0 -3 -4 -8 -10 -11 -5 -3 -10 -1 -10 4 0 6 5
11 10 11 6 0 10 -2 10 -4z m-400 -20 c0 -11 -19 -15 -25 -6 -3 5 1 10 9 10 9
0 16 -2 16 -4z m-240 -36 c0 -5 -7 -10 -16 -10 -8 0 -12 5 -9 10 3 6 10 10 16
10 5 0 9 -4 9 -10z m770 -10 c0 -5 -5 -10 -11 -10 -5 0 -7 5 -4 10 3 6 8 10
11 10 2 0 4 -4 4 -10z m-3647 -11 c-16 -16 -83 -17 -83 -2 0 9 16 13 47 13 34
0 44 -3 36 -11z m24 -11 c-3 -8 -6 -5 -6 6 -1 11 2 17 5 13 3 -3 4 -12 1 -19z
m2733 18 c0 -3 -4 -8 -10 -11 -5 -3 -10 -1 -10 4 0 6 5 11 10 11 6 0 10 -2 10
-4z m-243 -38 c-3 -8 -6 -5 -6 6 -1 11 2 17 5 13 3 -3 4 -12 1 -19z m50 0 c-3
-8 -6 -5 -6 6 -1 11 2 17 5 13 3 -3 4 -12 1 -19z m-1387 -1 c0 -7 -10 -13 -22
-14 -13 0 -17 1 -10 4 6 3 10 9 6 14 -3 5 2 9 10 9 9 0 16 -6 16 -13z m40 -1
c9 -12 8 -15 -9 -13 -21 1 -26 8 -14 20 9 9 9 9 23 -7z m32 -8 c-7 -7 -12 -8
-12 -2 0 14 12 26 19 19 2 -3 -1 -11 -7 -17z m281 15 c-16 -6 -17 -40 -1 -45
7 -3 6 -7 -5 -11 -14 -5 -17 0 -17 28 0 27 4 35 18 34 10 0 12 -3 5 -6z m244
1 c-3 -3 -12 -4 -19 -1 -8 3 -5 6 6 6 11 1 17 -2 13 -5z m843 -2 c0 -4 -9 -8
-20 -9 -11 -1 -20 2 -20 8 0 5 9 9 20 9 11 0 20 -4 20 -8z m805 -2 c3 -6 -1
-7 -9 -4 -18 7 -21 14 -7 14 6 0 13 -4 16 -10z m-3448 -22 c-3 -8 -6 -5 -6 6
-1 11 2 17 5 13 3 -3 4 -12 1 -19z m103 7 c0 -8 -5 -15 -11 -15 -5 0 -7 5 -4
10 3 6 1 10 -4 10 -6 0 -11 -4 -11 -8 0 -4 -13 -9 -30 -10 -21 -2 -30 2 -30
13 0 11 11 15 45 15 33 0 45 -4 45 -15z m2770 0 c0 -8 -7 -15 -15 -15 -26 0
-18 20 13 29 1 1 2 -6 2 -14z m577 -47 c-3 -7 -5 -2 -5 12 0 14 2 19 5 13 2
-7 2 -19 0 -25z m-2752 12 c-3 -5 -10 -10 -16 -10 -5 0 -9 5 -9 10 0 6 7 10
16 10 8 0 12 -4 9 -10z m45 2 c0 -5 -7 -9 -15 -9 -8 0 -15 4 -15 9 0 4 7 8 15
8 8 0 15 -4 15 -8z m45 -2 c-3 -5 -10 -10 -16 -10 -5 0 -9 5 -9 10 0 6 7 10
16 10 8 0 12 -4 9 -10z m675 -10 c0 -5 -4 -10 -10 -10 -5 0 -10 5 -10 10 0 6
5 10 10 10 6 0 10 -4 10 -10z m1290 2 c0 -4 -9 -8 -20 -9 -11 -1 -20 2 -20 8
0 5 9 9 20 9 11 0 20 -4 20 -8z m50 -2 c0 -5 -2 -10 -4 -10 -3 0 -8 5 -11 10
-3 6 -1 10 4 10 6 0 11 -4 11 -10z m-2113 -16 c-3 -3 -12 -4 -19 -1 -8 3 -5 6
6 6 11 1 17 -2 13 -5z m50 0 c-3 -3 -12 -4 -19 -1 -8 3 -5 6 6 6 11 1 17 -2
13 -5z m40 0 c-3 -3 -12 -4 -19 -1 -8 3 -5 6 6 6 11 1 17 -2 13 -5z m423 -7
c0 -8 -12 -13 -30 -13 -18 0 -30 5 -30 13 0 8 12 13 30 13 18 0 30 -5 30 -13z
m50 -4 c0 -7 -9 -13 -20 -13 -19 0 -26 11 -15 22 10 10 35 4 35 -9z m76 2 c-3
-22 -19 -23 -22 -2 -1 9 4 17 11 17 7 0 12 -7 11 -15z m2353 -30 c1 -25 -2
-45 -7 -45 -5 0 -8 16 -7 35 2 21 -2 35 -9 35 -8 0 9 17 20 20 0 0 1 -20 3
-45z m-2222 15 c-1 -11 -8 -20 -15 -20 -11 0 -12 3 -3 13 6 8 8 17 4 20 -3 4
-1 7 5 7 6 0 10 -9 9 -20z m-761 3 c-10 -11 -36 -12 -36 -2 0 5 10 9 22 9 12
0 18 -3 14 -7z m44 -3 c0 -5 -7 -7 -15 -4 -8 4 -15 8 -15 10 0 2 7 4 15 4 8 0
15 -4 15 -10z m40 0 c0 -5 -7 -7 -15 -4 -8 4 -15 8 -15 10 0 2 7 4 15 4 8 0
15 -4 15 -10z m283 -1 c9 0 17 -4 17 -9 0 -5 -27 -9 -60 -9 -55 0 -70 6 -54
21 3 3 22 4 42 1 20 -3 45 -5 55 -4z m1897 2 c0 -5 -7 -12 -16 -15 -14 -5 -15
-4 -4 9 14 17 20 19 20 6z m-2910 -16 c0 -8 -5 -15 -11 -15 -5 0 -7 5 -4 10 3
6 1 10 -4 10 -6 0 -11 -4 -11 -8 0 -13 -34 -11 -42 2 -5 7 -8 7 -8 1 0 -6 -9
-11 -20 -12 -11 -1 -20 4 -20 11 0 9 19 14 60 15 48 1 60 -1 60 -14z m2077 9
c-3 -3 -12 -4 -19 -1 -8 3 -5 6 6 6 11 1 17 -2 13 -5z m430 -16 c-3 -8 -6 -5
-6 6 -1 11 2 17 5 13 3 -3 4 -12 1 -19z m33 12 c0 -5 -4 -10 -10 -10 -5 0 -10
5 -10 10 0 6 5 10 10 10 6 0 10 -4 10 -10z m46 -17 c-10 -10 -19 5 -10 18 6
11 8 11 12 0 2 -7 1 -15 -2 -18z m114 17 c0 -5 -6 -10 -14 -10 -8 0 -18 5 -21
10 -3 6 3 10 14 10 12 0 21 -4 21 -10z m725 0 c3 -5 1 -10 -4 -10 -6 0 -11 5
-11 10 0 6 2 10 4 10 3 0 8 -4 11 -10z m-2735 -16 c0 -2 -7 -4 -15 -4 -8 0
-15 4 -15 10 0 5 7 7 15 4 8 -4 15 -8 15 -10z m173 1 c9 2 17 -1 17 -6 0 -5
-13 -8 -30 -7 -18 1 -30 8 -30 16 0 10 4 11 13 5 6 -6 20 -9 30 -8z m2327 11
c0 -11 -19 -15 -25 -6 -3 5 1 10 9 10 9 0 16 -2 16 -4z m-2553 -12 c-3 -3 -12
-4 -19 -1 -8 3 -5 6 6 6 11 1 17 -2 13 -5z m93 -9 c0 -8 -6 -15 -13 -15 -8 0
-14 7 -14 15 0 8 6 15 14 15 7 0 13 -7 13 -15z m80 7 c0 -4 -9 -8 -20 -9 -11
-1 -20 2 -20 8 0 5 9 9 20 9 11 0 20 -4 20 -8z m467 2 c-3 -3 -12 -4 -19 -1
-8 3 -5 6 6 6 11 1 17 -2 13 -5z m1350 -16 c-3 -8 -6 -5 -6 6 -1 11 2 17 5 13
3 -3 4 -12 1 -19z m-697 -6 c0 -8 -11 -11 -30 -10 -16 1 -30 7 -30 13 0 5 14
10 30 10 18 0 30 -5 30 -13z m1017 12 c-3 -3 -12 -4 -19 -1 -8 3 -5 6 6 6 11
1 17 -2 13 -5z m-2310 -10 c-3 -3 -12 -4 -19 -1 -8 3 -5 6 6 6 11 1 17 -2 13
-5z m50 0 c-3 -3 -12 -4 -19 -1 -8 3 -5 6 6 6 11 1 17 -2 13 -5z m588 -4 c-3
-5 -10 -10 -16 -10 -5 0 -9 5 -9 10 0 6 7 10 16 10 8 0 12 -4 9 -10z m705 -2
c0 -4 -9 -8 -20 -8 -11 0 -20 4 -20 9 0 6 9 9 20 8 11 -1 20 -5 20 -9z m177 6
c-3 -3 -12 -4 -19 -1 -8 3 -5 6 6 6 11 1 17 -2 13 -5z m343 -6 c0 -4 -9 -8
-20 -8 -11 0 -20 4 -20 8 0 4 9 8 20 8 11 0 20 -4 20 -8z m-2603 -20 c-3 -8
-6 -5 -6 6 -1 11 2 17 5 13 3 -3 4 -12 1 -19z m103 7 c0 -8 -5 -15 -11 -15 -5
0 -7 5 -4 10 3 6 1 10 -4 10 -6 0 -11 -4 -11 -8 0 -4 -13 -8 -30 -7 -17 0 -30
5 -30 12 0 9 16 13 45 13 33 0 45 -4 45 -15z m1410 9 c0 -8 -19 -13 -24 -6 -3
5 1 9 9 9 8 0 15 -2 15 -3z m920 -26 c0 -4 -9 -8 -21 -8 -11 0 -18 4 -15 8 3
5 12 9 21 9 8 0 15 -4 15 -9z m220 -1 c0 -8 -7 -14 -15 -14 -11 0 -12 4 -4 14
6 7 13 13 15 13 2 0 4 -6 4 -13z m-1540 -7 c0 -5 -7 -10 -15 -10 -8 0 -15 5
-15 10 0 6 7 10 15 10 8 0 15 -4 15 -10z m40 1 c0 -5 -7 -11 -15 -15 -9 -3
-15 0 -15 9 0 8 7 15 15 15 8 0 15 -4 15 -9z m50 -1 c0 -5 -7 -10 -16 -10 -8
0 -12 5 -9 10 3 6 10 10 16 10 5 0 9 -4 9 -10z m1107 4 c-3 -3 -12 -4 -19 -1
-8 3 -5 6 6 6 11 1 17 -2 13 -5z m293 -4 c0 -5 -5 -10 -11 -10 -5 0 -7 5 -4
10 3 6 8 10 11 10 2 0 4 -4 4 -10z m85 0 c3 -5 1 -10 -4 -10 -6 0 -11 5 -11
10 0 6 2 10 4 10 3 0 8 -4 11 -10z m252 4 c-3 -3 -12 -4 -19 -1 -8 3 -5 6 6 6
11 1 17 -2 13 -5z m-2167 -19 c0 -8 -9 -15 -20 -15 -11 0 -20 4 -20 10 0 5 7
7 15 4 8 -4 15 -1 15 5 0 6 2 11 5 11 3 0 5 -7 5 -15z m1487 9 c-3 -3 -12 -4
-19 -1 -8 3 -5 6 6 6 11 1 17 -2 13 -5z m633 -4 c0 -5 -5 -10 -11 -10 -5 0 -7
5 -4 10 3 6 8 10 11 10 2 0 4 -4 4 -10z m-2180 -16 c0 -14 -3 -14 -15 -4 -13
11 -14 10 -9 -4 5 -13 15 -15 45 -12 22 3 39 1 39 -3 0 -5 -10 -8 -22 -7 -13
1 -36 -1 -51 -5 -23 -6 -27 -5 -25 9 2 9 -3 16 -9 15 -7 -2 -13 1 -13 7 0 6
-9 6 -25 0 -19 -7 -25 -6 -25 4 0 8 18 13 55 15 46 2 55 -1 55 -15z m104 4
c-7 -11 -34 -10 -34 1 0 6 9 9 19 8 11 0 17 -5 15 -9z m36 2 c0 -5 -4 -10 -10
-10 -5 0 -10 5 -10 10 0 6 5 10 10 10 6 0 10 -4 10 -10z m927 -12 c-3 -8 -6
-5 -6 6 -1 11 2 17 5 13 3 -3 4 -12 1 -19z m56 -6 c-18 -5 -27 3 -18 17 4 7
10 7 20 -2 11 -10 11 -13 -2 -15z m162 18 c3 -5 -1 -10 -9 -10 -9 0 -16 5 -16
10 0 6 4 10 9 10 6 0 13 -4 16 -10z m930 0 c3 -5 1 -10 -4 -10 -6 0 -11 5 -11
10 0 6 2 10 4 10 3 0 8 -4 11 -10z m-2387 -13 c6 0 12 -5 12 -11 0 -11 -77
-13 -87 -2 -12 12 10 24 35 19 15 -3 33 -6 40 -6z m882 -2 c0 -8 -4 -15 -10
-15 -5 0 -10 7 -10 15 0 8 5 15 10 15 6 0 10 -7 10 -15z m50 4 c0 -6 9 -8 20
-4 11 3 20 2 20 -3 0 -4 -13 -8 -30 -8 -18 0 -30 5 -30 13 0 7 5 13 10 13 6 0
10 -5 10 -11z m147 -11 c-3 -8 -6 -5 -6 6 -1 11 2 17 5 13 3 -3 4 -12 1 -19z
m50 0 c-3 -8 -6 -5 -6 6 -1 11 2 17 5 13 3 -3 4 -12 1 -19z m-1087 2 c0 -5 -4
-10 -10 -10 -5 0 -10 5 -10 10 0 6 5 10 10 10 6 0 10 -4 10 -10z m1140 0 c0
-5 -9 -10 -20 -10 -11 0 -20 5 -20 10 0 6 9 10 20 10 11 0 20 -4 20 -10z m615
0 c3 -5 -3 -10 -14 -10 -12 0 -21 5 -21 10 0 6 6 10 14 10 8 0 18 -4 21 -10z
m75 -2 c0 -11 -32 -10 -49 1 -9 6 -4 8 18 7 17 0 31 -4 31 -8z m-1566 -6 c3
-5 -1 -9 -9 -9 -8 0 -12 4 -9 9 3 4 7 8 9 8 2 0 6 -4 9 -8z m41 -2 c3 -5 -1
-10 -10 -10 -9 0 -13 5 -10 10 3 6 8 10 10 10 2 0 7 -4 10 -10z m75 0 c0 -3
-13 -7 -30 -8 -16 -1 -30 2 -30 6 0 5 14 9 30 9 17 0 30 -3 30 -7z m145 0 c3
-5 -1 -10 -9 -10 -9 0 -16 5 -16 10 0 6 4 10 9 10 6 0 13 -4 16 -10z m82 -12
c-3 -8 -6 -5 -6 6 -1 11 2 17 5 13 3 -3 4 -12 1 -19z m99 -5 c-10 -10 -19 5
-10 18 6 11 8 11 12 0 2 -7 1 -15 -2 -18z m-479 11 c-3 -3 -12 -4 -19 -1 -8 3
-5 6 6 6 11 1 17 -2 13 -5z m433 2 c0 -3 -4 -8 -10 -11 -5 -3 -10 -1 -10 4 0
6 5 11 10 11 6 0 10 -2 10 -4z m967 -2 c-3 -3 -12 -4 -19 -1 -8 3 -5 6 6 6 11
1 17 -2 13 -5z m43 -9 c-7 -8 -16 -12 -21 -9 -13 8 -1 24 18 24 13 0 13 -3 3
-15z m600 5 c0 -5 -2 -10 -4 -10 -3 0 -8 5 -11 10 -3 6 -1 10 4 10 6 0 11 -4
11 -10z m-2320 -19 c0 -9 -8 -12 -25 -9 -22 5 -25 2 -25 -27 0 -29 3 -32 25
-27 18 3 25 0 25 -10 0 -11 -10 -15 -31 -14 -31 1 -32 2 -31 49 0 26 1 48 1
50 1 1 15 2 31 2 19 0 30 -5 30 -14z m50 4 c0 -8 -2 -15 -4 -15 -2 0 -6 7 -10
15 -3 8 -1 15 4 15 6 0 10 -7 10 -15z m2424 0 c-4 -8 -10 -15 -15 -15 -5 0 -9
7 -9 15 0 8 7 15 15 15 9 0 12 -6 9 -15z m-2457 -42 c-3 -10 -5 -2 -5 17 0 19
2 27 5 18 2 -10 2 -26 0 -35z m113 37 c0 -5 -5 -10 -11 -10 -5 0 -7 5 -4 10 3
6 8 10 11 10 2 0 4 -4 4 -10z m36 -5 c-7 -20 3 -19 27 3 19 16 20 16 14 0 -8
-22 1 -23 24 -2 16 15 17 14 12 -5 -4 -15 -15 -21 -47 -24 -31 -3 -26 -4 22
-5 34 -1 62 -6 62 -11 0 -5 -9 -7 -20 -4 -14 4 -20 0 -20 -11 0 -9 -5 -16 -11
-16 -6 0 -9 7 -5 15 3 9 0 15 -9 15 -9 0 -12 -6 -9 -15 4 -9 0 -15 -10 -15
-10 0 -13 6 -10 15 4 8 1 15 -5 15 -6 0 -11 -7 -11 -15 0 -8 -6 -15 -14 -15
-16 0 -19 46 -5 73 12 21 23 23 15 2z m114 -5 c0 -11 -7 -20 -15 -20 -13 0
-13 3 -3 20 7 11 14 20 15 20 2 0 3 -9 3 -20z m37 0 c-1 -11 -7 -20 -14 -20
-11 0 -11 4 -1 20 7 11 14 20 15 20 1 0 1 -9 0 -20z m40 0 c-1 -11 -7 -20 -14
-20 -16 0 -16 7 0 25 16 19 16 18 14 -5z m73 9 c0 -5 -5 -7 -10 -4 -17 11 -40
-3 -34 -20 3 -8 10 -15 16 -15 5 0 6 5 3 10 -3 6 1 10 10 10 10 0 15 -7 13
-17 -3 -18 -39 -24 -78 -12 -24 7 -24 7 -2 8 20 1 28 15 23 44 0 4 13 7 29 7
17 0 30 -5 30 -11z m147 5 c-3 -3 -12 -4 -19 -1 -8 3 -5 6 6 6 11 1 17 -2 13
-5z m803 -4 c0 -5 -4 -10 -9 -10 -6 0 -13 5 -16 10 -3 6 1 10 9 10 9 0 16 -4
16 -10z m200 -7 c0 -8 -13 -13 -30 -13 -18 0 -30 5 -30 13 0 8 12 13 30 12 17
0 30 -5 30 -12z m46 -10 c-10 -10 -19 5 -10 18 6 11 8 11 12 0 2 -7 1 -15 -2
-18z m494 16 c0 -5 -9 -9 -20 -9 -11 0 -20 4 -20 8 0 4 9 8 20 9 11 1 20 -2
20 -8z m50 1 c0 -5 -5 -10 -11 -10 -5 0 -7 5 -4 10 3 6 8 10 11 10 2 0 4 -4 4
-10z m-1460 -17 c0 -9 -11 -13 -30 -11 -16 1 -30 7 -30 13 0 6 14 11 30 11 18
0 30 -5 30 -13z m50 2 c0 -8 -9 -15 -20 -15 -25 0 -26 17 -2 23 9 3 18 5 20 6
1 0 2 -6 2 -14z m536 3 c4 4 5 2 1 -3 -5 -10 -23 -11 -77 -5 -10 1 -9 4 5 9
11 5 30 5 41 0 12 -4 25 -5 30 -1z m381 6 c-3 -3 -12 -4 -19 -1 -8 3 -5 6 6 6
11 1 17 -2 13 -5z m-1102 -14 c-3 -5 -10 -10 -16 -10 -5 0 -9 5 -9 10 0 6 7
10 16 10 8 0 12 -4 9 -10z m-575 -15 c0 -6 -9 -11 -20 -12 -11 -1 -20 4 -20
12 0 8 9 13 20 12 11 -1 20 -6 20 -12z m50 0 c0 -8 -4 -15 -10 -15 -5 0 -10 7
-10 15 0 8 5 15 10 15 6 0 10 -7 10 -15z m37 9 c-3 -3 -12 -4 -19 -1 -8 3 -5
6 6 6 11 1 17 -2 13 -5z m40 0 c-3 -3 -12 -4 -19 -1 -8 3 -5 6 6 6 11 1 17 -2
13 -5z m1284 -1 c6 -37 3 -83 -6 -83 -5 0 -3 -5 5 -10 13 -8 13 -10 -2 -10
-13 0 -16 10 -15 55 1 30 5 55 10 55 4 0 8 -3 8 -7z m269 -13 c0 -11 -6 -20
-13 -20 -7 0 -13 9 -13 20 0 11 6 20 13 20 7 0 13 -9 13 -20z m-720 -5 c0 -8
-4 -15 -10 -15 -6 0 -6 -9 0 -26 13 -33 13 -34 -7 -34 -14 0 -18 8 -17 38 2
52 2 52 19 52 8 0 15 -7 15 -15z m1130 11 c0 -2 -7 -6 -15 -10 -8 -3 -15 -1
-15 4 0 6 7 10 15 10 8 0 15 -2 15 -4z m30 -6 c0 -5 -2 -10 -4 -10 -3 0 -8 5
-11 10 -3 6 -1 10 4 10 6 0 11 -4 11 -10z m50 0 c0 -5 -5 -10 -11 -10 -5 0 -7
5 -4 10 3 6 8 10 11 10 2 0 4 -4 4 -10z m150 0 c0 -5 -7 -10 -16 -10 -8 0 -12
5 -9 10 3 6 10 10 16 10 5 0 9 -4 9 -10z m-2230 -20 c0 -13 -6 -20 -17 -19
-12 0 -13 2 -5 6 10 4 10 8 1 19 -9 11 -8 14 5 14 9 0 16 -8 16 -20z m40 0 c0
-11 -6 -20 -13 -20 -7 0 -13 9 -14 20 -1 11 4 20 13 20 8 0 14 -9 14 -20z
m187 14 c-3 -3 -12 -4 -19 -1 -8 3 -5 6 6 6 11 1 17 -2 13 -5z m1053 -4 c0 -5
-4 -10 -10 -10 -5 0 -10 5 -10 10 0 6 5 10 10 10 6 0 10 -4 10 -10z m540 1 c0
-5 -9 -11 -20 -14 -22 -6 -28 8 -7 16 19 8 27 8 27 -2z m-94 -29 c-18 -16 -18
-16 -6 6 6 13 14 21 18 18 3 -4 -2 -14 -12 -24z m44 18 c0 -5 -2 -10 -4 -10
-3 0 -8 5 -11 10 -3 6 -1 10 4 10 6 0 11 -4 11 -10z m-1829 -20 c6 0 7 5 4 10
-3 6 -1 10 4 10 6 0 11 -7 11 -15 0 -8 -9 -15 -20 -15 -13 0 -20 6 -19 18 0
10 3 12 6 5 2 -7 9 -13 14 -13z m289 10 c0 -5 -7 -10 -15 -10 -8 0 -15 5 -15
10 0 6 7 10 15 10 8 0 15 -4 15 -10z m40 -5 c0 -20 10 -19 27 3 14 16 14 16 9
-1 -3 -10 -6 -23 -6 -28 0 -6 -15 -8 -32 -6 -18 2 -32 6 -30 10 1 4 2 14 2 22
0 8 7 15 15 15 8 0 15 -7 15 -15z m127 -7 c-3 -8 -6 -5 -6 6 -1 11 2 17 5 13
3 -3 4 -12 1 -19z m53 5 c0 -7 -8 -13 -18 -13 -10 0 -19 6 -19 14 0 8 9 14 19
13 10 -1 18 -7 18 -14z m50 2 c0 -8 -9 -15 -20 -15 -25 0 -26 17 -2 23 9 3 18
5 20 6 1 0 2 -6 2 -14z m930 5 c-19 -13 -30 -13 -30 0 0 6 10 10 23 10 18 0
19 -2 7 -10z m60 -10 c0 -5 -9 -6 -20 -3 -11 3 -17 9 -15 14 7 10 35 1 35 -11z
m-1140 -16 c0 -8 -4 -14 -10 -14 -5 0 -10 9 -10 21 0 11 5 17 10 14 6 -3 10
-13 10 -21z m287 12 c-2 -6 -22 -11 -44 -11 -23 0 -39 3 -37 7 3 4 0 8 -5 8
-6 0 -11 -5 -11 -11 0 -5 -4 -7 -10 -4 -25 16 -5 25 50 23 34 -1 59 -7 57 -12z
m587 6 c3 -5 -1 -9 -9 -9 -8 0 -12 4 -9 9 3 4 7 8 9 8 2 0 6 -4 9 -8z m363 2
c-3 -3 -12 -4 -19 -1 -8 3 -5 6 6 6 11 1 17 -2 13 -5z m273 -24 c0 -13 -29
-20 -36 -8 -4 7 -3 8 4 4 7 -4 12 -1 12 9 0 9 5 13 10 10 6 -3 10 -10 10 -15z
m410 10 c0 -5 -5 -10 -11 -10 -5 0 -7 5 -4 10 3 6 8 10 11 10 2 0 4 -4 4 -10z
m-990 -10 c0 -5 -4 -10 -10 -10 -5 0 -10 5 -10 10 0 6 5 10 10 10 6 0 10 -4
10 -10z m680 -9 c0 -5 -13 -8 -30 -7 -16 0 -30 4 -30 8 0 5 14 8 30 8 17 0 30
-4 30 -9z m50 -1 c0 -5 -5 -10 -11 -10 -5 0 -7 5 -4 10 3 6 8 10 11 10 2 0 4
-4 4 -10z m57 -12 c-3 -8 -6 -5 -6 6 -1 11 2 17 5 13 3 -3 4 -12 1 -19z m53 6
c0 -7 -8 -10 -20 -7 -11 3 -20 9 -20 14 0 4 9 7 20 6 11 -1 20 -7 20 -13z
m-1584 -1 c-15 -4 -16 -7 -5 -14 11 -7 11 -9 -3 -9 -10 0 -18 7 -18 15 0 9 9
15 23 14 19 -1 19 -2 3 -6z m64 -18 c0 -2 -9 -3 -20 -2 -11 1 -20 7 -20 14 0
11 5 11 20 3 11 -6 20 -13 20 -15z m950 5 c0 -5 -7 -10 -16 -10 -8 0 -12 5 -9
10 3 6 10 10 16 10 5 0 9 -4 9 -10z m40 0 c0 -5 -7 -10 -16 -10 -8 0 -12 5 -9
10 3 6 10 10 16 10 5 0 9 -4 9 -10z m225 0 c3 -5 1 -10 -4 -10 -6 0 -11 5 -11
10 0 6 2 10 4 10 3 0 8 -4 11 -10z m-588 -6 c-3 -3 -12 -4 -19 -1 -8 3 -5 6 6
6 11 1 17 -2 13 -5z m208 -12 c-12 -12 -35 -10 -35 3 0 8 7 11 20 8 12 -3 18
-8 15 -11z m47 -14 c-7 -7 -12 -8 -12 -2 0 6 3 14 7 17 3 4 9 5 12 2 2 -3 -1
-11 -7 -17z m105 6 c-3 -3 -12 -4 -19 -1 -8 3 -5 6 6 6 11 1 17 -2 13 -5z m83
-13 c0 -4 -9 -7 -20 -8 -11 -1 -20 4 -20 12 0 8 7 11 20 8 11 -3 20 -8 20 -12z
m17 -3 c-3 -8 -6 -5 -6 6 -1 11 2 17 5 13 3 -3 4 -12 1 -19z m113 12 c-8 -5
-19 -10 -25 -10 -5 0 -3 5 5 10 8 5 20 10 25 10 6 0 3 -5 -5 -10z m-730 -15
c0 -8 -4 -15 -10 -15 -5 0 -10 6 -10 13 0 8 -4 7 -10 -3 -8 -13 -10 -12 -10 3
0 10 8 17 20 17 11 0 20 -7 20 -15z m17 -7 c-3 -8 -6 -5 -6 6 -1 11 2 17 5 13
3 -3 4 -12 1 -19z m33 7 c0 -8 -4 -15 -8 -15 -5 0 -9 7 -9 15 0 8 4 15 9 15 4
0 8 -7 8 -15z m207 -17 c-3 -8 -6 -5 -6 6 -1 11 2 17 5 13 3 -3 4 -12 1 -19z
m73 11 c0 -11 -29 -19 -45 -13 -24 10 -17 19 15 19 17 1 30 -2 30 -6z m150 -1
c0 -4 -7 -8 -15 -8 -8 0 -15 4 -15 8 0 5 7 9 15 9 8 0 15 -4 15 -9z m40 0 c0
-4 -7 -8 -15 -8 -8 0 -15 4 -15 8 0 5 7 9 15 9 8 0 15 -4 15 -9z m-1133 -30
c-3 -8 -6 -5 -6 6 -1 11 2 17 5 13 3 -3 4 -12 1 -19z m30 7 c0 -8 -4 -15 -9
-15 -4 0 -8 7 -8 15 0 8 4 15 8 15 5 0 9 -7 9 -15z m683 11 c0 -11 -19 -15
-25 -6 -3 5 1 10 9 10 9 0 16 -2 16 -4z m770 -6 c0 -5 -7 -10 -16 -10 -8 0
-12 5 -9 10 3 6 10 10 16 10 5 0 9 -4 9 -10z m100 2 c0 -13 -12 -22 -22 -16
-10 6 -1 24 13 24 5 0 9 -4 9 -8z m-1500 -13 c0 -5 -9 -9 -20 -9 -11 0 -20 4
-20 8 0 4 9 8 20 9 11 1 20 -2 20 -8z m1047 5 c-3 -3 -12 -4 -19 -1 -8 3 -5 6
6 6 11 1 17 -2 13 -5z m-694 -26 c6 -21 2 -36 -7 -27 -10 11 -16 49 -8 49 5 0
12 -10 15 -22z m167 12 c0 -5 -7 -10 -15 -10 -8 0 -15 5 -15 10 0 6 7 10 15
10 8 0 15 -4 15 -10z m150 0 c0 -5 -4 -10 -10 -10 -5 0 -10 5 -10 10 0 6 5 10
10 10 6 0 10 -4 10 -10z m435 0 c-3 -5 -10 -10 -16 -10 -5 0 -9 5 -9 10 0 6 7
10 16 10 8 0 12 -4 9 -10z m125 -6 c0 -8 -5 -12 -10 -9 -6 4 -8 11 -5 16 9 14
15 11 15 -7z m-226 -6 c-3 -4 -9 -8 -15 -8 -5 0 -9 4 -9 8 0 5 7 9 15 9 8 0
12 -4 9 -9z m46 2 c0 -5 -4 -10 -9 -10 -6 0 -13 5 -16 10 -3 6 1 10 9 10 9 0
16 -4 16 -10z m230 0 c0 -5 -5 -10 -11 -10 -5 0 -7 5 -4 10 3 6 8 10 11 10 2
0 4 -4 4 -10z m-653 -16 c-3 -3 -12 -4 -19 -1 -8 3 -5 6 6 6 11 1 17 -2 13 -5z
m43 -4 c0 -5 -5 -10 -11 -10 -5 0 -7 5 -4 10 3 6 8 10 11 10 2 0 4 -4 4 -10z
m735 0 c3 -5 -1 -10 -10 -10 -9 0 -13 5 -10 10 3 6 8 10 10 10 2 0 7 -4 10
-10z m95 -5 c0 -8 -4 -15 -10 -15 -5 0 -7 7 -4 15 4 8 8 15 10 15 2 0 4 -7 4
-15z m17 -7 c-3 -8 -6 -5 -6 6 -1 11 2 17 5 13 3 -3 4 -12 1 -19z m-1324 -8
c-6 -24 -26 -21 -31 3 -2 11 3 17 16 17 15 0 19 -5 15 -20z m54 -2 c-3 -8 -6
-5 -6 6 -1 11 2 17 5 13 3 -3 4 -12 1 -19z m583 12 c0 -5 -4 -10 -10 -10 -5 0
-10 5 -10 10 0 6 5 10 10 10 6 0 10 -4 10 -10z m50 -6 c0 -8 -5 -12 -10 -9 -6
4 -8 11 -5 16 9 14 15 11 15 -7z m380 -5 c0 -5 -13 -8 -30 -7 -16 1 -30 7 -30
13 0 7 12 10 30 7 17 -2 30 -8 30 -13z m190 17 c0 -11 -19 -15 -25 -6 -3 5 1
10 9 10 9 0 16 -2 16 -4z m-1460 -16 c0 -5 -4 -10 -9 -10 -6 0 -13 5 -16 10
-3 6 1 10 9 10 9 0 16 -4 16 -10z m528 -1 c-2 -6 -8 -10 -13 -10 -5 0 -11 4
-13 10 -2 6 4 11 13 11 9 0 15 -5 13 -11z m262 7 c0 -3 -4 -8 -10 -11 -5 -3
-10 -1 -10 4 0 6 5 11 10 11 6 0 10 -2 10 -4z m-153 -12 c-3 -3 -12 -4 -19 -1
-8 3 -5 6 6 6 11 1 17 -2 13 -5z m1163 -16 c0 -4 -9 -8 -20 -8 -11 0 -20 4
-20 9 0 6 9 9 20 8 11 -1 20 -5 20 -9z m30 2 c0 -5 -4 -10 -10 -10 -5 0 -10 5
-10 10 0 6 5 10 10 10 6 0 10 -4 10 -10z m-850 -10 c0 -5 -4 -10 -9 -10 -6 0
-13 5 -16 10 -3 6 1 10 9 10 9 0 16 -4 16 -10z m40 0 c0 -5 -4 -10 -10 -10 -5
0 -10 5 -10 10 0 6 5 10 10 10 6 0 10 -4 10 -10z m400 0 c0 -5 -8 -10 -17 -10
-15 0 -16 2 -3 10 19 12 20 12 20 0z m540 -1 c0 -5 -9 -9 -20 -9 -11 0 -20 4
-20 8 0 4 9 8 20 9 11 1 20 -2 20 -8z m-1176 -14 c3 -8 1 -15 -4 -15 -6 0 -10
7 -10 15 0 8 2 15 4 15 2 0 6 -7 10 -15z m-829 -5 c-3 -5 -13 -10 -21 -10 -8
0 -14 5 -14 10 0 6 9 10 21 10 11 0 17 -4 14 -10z m45 0 c0 -5 -2 -10 -4 -10
-3 0 -8 5 -11 10 -3 6 -1 10 4 10 6 0 11 -4 11 -10z m543 -6 c-6 -17 -33 -19
-33 -1 0 7 9 13 19 14 14 1 18 -3 14 -13z m41 -17 c7 -6 6 -7 -4 -4 -8 2 -16
12 -17 23 -2 13 -1 15 4 4 3 -8 11 -19 17 -23z m121 23 c-3 -5 -11 -10 -16
-10 -6 0 -7 5 -4 10 3 6 11 10 16 10 6 0 7 -4 4 -10z m-335 -25 c0 -14 -4 -25
-9 -25 -12 0 -23 29 -15 41 10 18 24 9 24 -16z m1297 19 c-3 -3 -12 -4 -19 -1
-8 3 -5 6 6 6 11 1 17 -2 13 -5z m-2355 -21 c6 -26 -5 -68 -19 -70 -9 -2 -10
4 -4 20 5 12 7 32 5 45 -4 26 12 30 18 5z m50 0 c3 -10 1 -28 -3 -40 -5 -14
-4 -23 4 -27 7 -2 2 -5 -10 -5 -19 -1 -21 2 -14 22 5 12 7 32 5 45 -4 26 13
30 18 5z m58 -1 c0 -5 -7 -9 -15 -9 -8 0 -12 4 -9 9 3 4 9 8 15 8 5 0 9 -4 9
-8z m45 -30 c0 -18 -4 -32 -10 -32 -5 0 -3 -5 5 -10 13 -8 13 -10 -2 -10 -13
0 -16 9 -15 45 1 51 21 57 22 7z m45 28 c0 -5 -4 -10 -9 -10 -6 0 -13 5 -16
10 -3 6 1 10 9 10 9 0 16 -4 16 -10z m45 -51 c0 -40 -4 -54 -15 -54 -14 0 -23
52 -10 60 4 3 5 16 2 31 -3 20 -1 25 9 22 9 -3 14 -22 14 -59z m1781 26 c20
-19 23 -24 8 -19 -18 7 -18 7 -1 -13 9 -11 17 -30 17 -44 0 -19 2 -21 10 -9 7
11 10 2 10 -31 0 -39 -4 -47 -25 -57 -42 -19 -74 -14 -106 17 -16 16 -29 36
-29 45 0 8 -8 20 -17 25 -10 6 -13 11 -8 11 6 0 11 9 12 21 1 12 12 37 25 56
19 28 28 33 49 29 15 -3 40 -17 55 -31z m233 -50 c0 -54 -3 -84 -9 -80 -13 8
-13 165 -1 165 5 0 10 -38 10 -85z m-1348 47 c33 -21 45 -36 47 -56 4 -51 -45
-106 -93 -106 -9 0 -15 -9 -15 -21 0 -18 -4 -20 -26 -15 -59 15 -94 60 -94
119 1 44 40 86 95 100 35 9 41 7 86 -21z m-271 8 c0 -5 -7 -10 -15 -10 -8 0
-15 5 -15 10 0 6 7 10 15 10 8 0 15 -4 15 -10z m614 -11 c-3 -5 -10 -7 -15 -3
-5 3 -7 10 -3 15 3 5 10 7 15 3 5 -3 7 -10 3 -15z m200 6 c-4 -8 -10 -12 -15
-9 -14 8 -10 24 6 24 9 0 12 -6 9 -15z m776 -55 c0 -40 -4 -70 -10 -70 -6 0
-10 30 -10 70 0 40 4 70 10 70 6 0 10 -30 10 -70z m-2120 40 c0 -12 -7 -20
-16 -20 -14 0 -15 2 -3 17 10 11 10 14 2 9 -7 -4 -13 -2 -13 3 0 6 7 11 15 11
8 0 15 -9 15 -20z m90 0 c0 -11 -6 -20 -14 -20 -9 0 -14 9 -13 20 1 11 7 20
14 20 7 0 13 -9 13 -20z m250 -7 c0 -14 -26 -18 -34 -4 -7 11 0 18 19 18 8 0
15 -6 15 -14z m26 -10 c-10 -10 -19 5 -10 18 6 11 8 11 12 0 2 -7 1 -15 -2
-18z m21 5 c-3 -8 -6 -5 -6 6 -1 11 2 17 5 13 3 -3 4 -12 1 -19z m33 7 c0 -8
-2 -15 -4 -15 -2 0 -6 7 -10 15 -3 8 -1 15 4 15 6 0 10 -7 10 -15z m1630 -9
c0 -23 -16 -27 -17 -5 -1 10 2 19 8 19 5 0 9 -6 9 -14z m-1553 -11 c0 -8 -4
-15 -9 -15 -4 0 -8 7 -8 15 0 8 4 15 8 15 5 0 9 -7 9 -15z m20 -7 c-3 -8 -6
-5 -6 6 -1 11 2 17 5 13 3 -3 4 -12 1 -19z m46 9 c3 -8 -3 -13 -14 -13 -11 0
-19 6 -19 13 0 7 6 13 14 13 8 0 16 -6 19 -13z m380 -9 c-9 -36 -24 -52 -34
-36 -5 7 -9 23 -9 36 0 17 6 22 24 22 20 0 23 -4 19 -22z m67 -3 c0 -14 -4
-25 -10 -25 -5 0 -9 11 -8 25 1 14 6 25 10 25 4 0 8 -11 8 -25z m125 6 c3 -5
1 -12 -5 -16 -5 -3 -10 1 -10 9 0 18 6 21 15 7z m133 -21 c0 -16 -3 -30 -8
-30 -9 0 -20 47 -12 55 12 12 19 3 20 -25z m46 9 c-3 -5 -10 -7 -15 -3 -5 3
-7 10 -3 15 3 5 10 7 15 3 5 -3 7 -10 3 -15z m56 12 c0 -5 -7 -11 -15 -15 -9
-3 -15 0 -15 9 0 8 7 15 15 15 8 0 15 -4 15 -9z m39 -23 c-1 -31 -1 -31 -8 -8
-5 14 -6 28 -4 33 9 15 13 6 12 -25z m55 0 c-4 -34 -5 -35 -13 -8 -8 27 -4 43
8 36 4 -3 7 -15 5 -28z m51 22 c3 -5 -1 -10 -10 -10 -9 0 -13 5 -10 10 3 6 8
10 10 10 2 0 7 -4 10 -10z m49 -5 c-4 -8 -10 -15 -15 -15 -5 0 -9 7 -9 15 0 8
7 15 15 15 9 0 12 -6 9 -15z m101 5 c-3 -5 -10 -10 -16 -10 -5 0 -9 5 -9 10 0
6 7 10 16 10 8 0 12 -4 9 -10z m45 1 c0 -6 -4 -13 -10 -16 -5 -3 -10 1 -10 9
0 9 5 16 10 16 6 0 10 -4 10 -9z m1010 -1 c0 -5 -4 -10 -10 -10 -5 0 -10 5
-10 10 0 6 5 10 10 10 6 0 10 -4 10 -10z m40 0 c0 -5 -2 -10 -4 -10 -3 0 -8 5
-11 10 -3 6 -1 10 4 10 6 0 11 -4 11 -10z m-2763 -20 c1 -11 -4 -20 -12 -20
-8 0 -13 9 -12 20 1 11 6 20 12 20 6 0 11 -9 12 -20z m90 0 c1 -11 -4 -20 -12
-20 -8 0 -13 9 -12 20 1 11 6 20 12 20 6 0 11 -9 12 -20z m283 5 c0 -8 -4 -15
-10 -15 -5 0 -10 6 -10 13 0 7 -3 8 -8 2 -9 -13 -42 -18 -42 -7 0 14 7 18 40
20 21 2 30 -2 30 -13z m17 -7 c-3 -8 -6 -5 -6 6 -1 11 2 17 5 13 3 -3 4 -12 1
-19z m33 7 c0 -8 -4 -15 -8 -15 -5 0 -9 7 -9 15 0 8 4 15 9 15 4 0 8 -7 8 -15z
m-530 -5 c0 -5 -7 -7 -15 -4 -8 4 -15 8 -15 10 0 2 7 4 15 4 8 0 15 -4 15 -10z
m160 -10 c0 -5 -5 -10 -11 -10 -5 0 -7 5 -4 10 3 6 8 10 11 10 2 0 4 -4 4 -10z
m490 -2 c0 -4 5 -8 11 -8 5 0 7 5 3 11 -4 7 1 10 11 7 10 -1 20 -8 22 -15 3
-9 -12 -12 -51 -12 -53 1 -76 13 -38 21 28 6 42 5 42 -4z m1507 6 c-3 -3 -12
-4 -19 -1 -8 3 -5 6 6 6 11 1 17 -2 13 -5z m-337 -8 c0 -3 -4 -8 -10 -11 -5
-3 -10 -1 -10 4 0 6 5 11 10 11 6 0 10 -2 10 -4z m-1754 -32 c0 -11 -6 -21
-13 -21 -6 0 -9 6 -6 13 3 8 -10 11 -46 9 -28 -2 -51 1 -51 7 0 5 4 7 9 3 5
-3 12 -2 15 3 3 5 25 8 49 8 39 -1 44 -4 43 -22z m414 11 c0 -18 -20 -20 -21
-2 0 8 -2 8 -5 1 -3 -7 -14 -10 -24 -7 -32 8 -23 20 15 21 25 1 35 -3 35 -13z
m17 -7 c-3 -8 -6 -5 -6 6 -1 11 2 17 5 13 3 -3 4 -12 1 -19z m30 0 c-3 -8 -6
-5 -6 6 -1 11 2 17 5 13 3 -3 4 -12 1 -19z m719 -5 c-10 -10 -19 5 -10 18 6
11 8 11 12 0 2 -7 1 -15 -2 -18z m59 17 c3 -6 -1 -7 -9 -4 -18 7 -21 14 -7 14
6 0 13 -4 16 -10z m475 6 c0 -3 -4 -8 -10 -11 -5 -3 -10 -1 -10 4 0 6 5 11 10
11 6 0 10 -2 10 -4z m380 -6 c0 -5 -7 -7 -15 -4 -8 4 -15 8 -15 10 0 2 7 4 15
4 8 0 15 -4 15 -10z m-1506 -25 c3 -8 -5 -12 -20 -12 -23 0 -30 7 -19 19 9 9
34 5 39 -7z m46 -6 c0 -5 -7 -9 -15 -9 -8 0 -15 7 -15 15 0 9 6 12 15 9 8 -4
15 -10 15 -15z m-596 3 c3 -5 -1 -9 -9 -9 -8 0 -12 4 -9 9 3 4 7 8 9 8 2 0 6
-4 9 -8z m376 -18 c0 -14 -3 -14 -15 -4 -12 10 -15 10 -15 -1 0 -11 -2 -11 -9
-1 -6 10 -10 10 -21 -3 -14 -17 -40 -20 -40 -5 0 6 7 10 15 10 8 0 15 5 15 10
0 6 16 10 35 10 26 0 35 -4 35 -16z m41 -7 c-10 -9 -11 -8 -5 6 3 10 9 15 12
12 3 -3 0 -11 -7 -18z m549 10 c0 -8 -3 -17 -7 -20 -9 -9 -34 13 -27 24 8 14
34 11 34 -4z m57 -19 c-3 -8 -6 -5 -6 6 -1 11 2 17 5 13 3 -3 4 -12 1 -19z
m648 12 c-3 -5 -10 -10 -16 -10 -5 0 -9 5 -9 10 0 6 7 10 16 10 8 0 12 -4 9
-10z m-1639 -27 c-10 -10 -19 5 -10 18 6 11 8 11 12 0 2 -7 1 -15 -2 -18z
m234 23 c0 -2 -7 -6 -15 -10 -8 -3 -15 -1 -15 4 0 6 7 10 15 10 8 0 15 -2 15
-4z m-133 -19 c-3 -11 -17 -12 -69 -5 -36 5 -16 16 28 16 30 0 44 -4 41 -11z
m-172 -7 c3 -5 -1 -10 -10 -10 -9 0 -13 5 -10 10 3 6 8 10 10 10 2 0 7 -4 10
-10z m40 0 c3 -5 -1 -10 -10 -10 -9 0 -13 5 -10 10 3 6 8 10 10 10 2 0 7 -4
10 -10z m302 -6 c-3 -3 -12 -4 -19 -1 -8 3 -5 6 6 6 11 1 17 -2 13 -5z m159
-21 c-10 -10 -19 5 -10 18 6 11 8 11 12 0 2 -7 1 -15 -2 -18z m102 2 c-3 -3
-9 2 -12 12 -6 14 -5 15 5 6 7 -7 10 -15 7 -18z m937 15 c3 -6 -1 -7 -9 -4
-18 7 -21 14 -7 14 6 0 13 -4 16 -10z m-1178 -22 c-3 -8 -6 -5 -6 6 -1 11 2
17 5 13 3 -3 4 -12 1 -19z m33 7 c0 -8 -4 -15 -10 -15 -5 0 -10 7 -10 15 0 8
5 15 10 15 6 0 10 -7 10 -15z m55 -5 c3 0 3 5 0 10 -3 6 -1 10 4 10 6 0 11 -7
11 -15 0 -11 -9 -15 -30 -13 -17 1 -30 8 -30 15 0 10 5 11 19 3 11 -5 22 -10
26 -10z m105 11 c0 -6 -9 -9 -20 -8 -11 1 -20 5 -20 9 0 4 9 8 20 8 11 0 20
-4 20 -9z m-561 -18 c-10 -11 -10 -14 -1 -9 6 4 12 2 12 -3 0 -6 -7 -11 -15
-11 -8 0 -15 9 -15 20 0 12 7 20 16 20 14 0 15 -2 3 -17z m48 11 c-3 -3 -12
-4 -19 -1 -8 3 -5 6 6 6 11 1 17 -2 13 -5z m63 -9 c0 -8 -9 -13 -20 -12 -11 1
-20 6 -20 12 0 6 9 11 20 12 11 1 20 -4 20 -12z m68 0 c1 -6 -11 -10 -28 -11
-16 -1 -30 4 -30 10 0 14 54 15 58 1z m123 1 c-9 -11 -9 -15 1 -19 9 -4 7 -6
-4 -6 -11 -1 -16 6 -15 19 1 11 8 20 15 20 11 0 12 -3 3 -14z m46 8 c-3 -3
-12 -4 -19 -1 -8 3 -5 6 6 6 11 1 17 -2 13 -5z m907 -2 c3 -5 -1 -9 -9 -9 -8
0 -12 4 -9 9 3 4 7 8 9 8 2 0 6 -4 9 -8z m-254 -21 c0 -11 -5 -23 -11 -27 -15
-9 -33 12 -26 30 9 23 37 20 37 -3z m67 -1 c-4 -28 -17 -37 -17 -12 0 13 -8
22 -22 25 -17 3 -14 5 9 6 27 1 32 -2 30 -19z m-717 0 c0 -5 -7 -10 -15 -10
-8 0 -15 5 -15 10 0 6 7 10 15 10 8 0 15 -4 15 -10z m1570 -5 c-7 -8 -16 -12
-21 -9 -13 8 -1 24 18 24 13 0 13 -3 3 -15z m747 -17 c-3 -7 -5 -2 -5 12 0 14
2 19 5 13 2 -7 2 -19 0 -25z m-2229 8 c10 -7 16 -6 22 4 5 8 12 11 15 8 16
-15 -8 -25 -60 -25 -40 0 -55 3 -55 13 0 17 57 17 78 0z m68 -13 c-10 -10 -19
5 -10 18 6 11 8 11 12 0 2 -7 1 -15 -2 -18z m52 15 c-6 -17 -38 -19 -38 -2 0
8 9 14 21 14 11 0 19 -5 17 -12z m19 -10 c-3 -8 -6 -5 -6 6 -1 11 2 17 5 13 3
-3 4 -12 1 -19z m24 -1 c-10 -9 -11 -8 -5 6 3 10 9 15 12 12 3 -3 0 -11 -7
-18z m1034 13 c-3 -5 -10 -10 -16 -10 -5 0 -9 5 -9 10 0 6 7 10 16 10 8 0 12
-4 9 -10z m50 0 c-3 -5 -10 -10 -16 -10 -5 0 -9 5 -9 10 0 6 7 10 16 10 8 0
12 -4 9 -10z m105 6 c0 -2 -7 -6 -15 -10 -8 -3 -15 -1 -15 4 0 6 7 10 15 10 8
0 15 -2 15 -4z m40 -6 c0 -5 -4 -10 -10 -10 -5 0 -10 5 -10 10 0 6 5 10 10 10
6 0 10 -4 10 -10z m-1827 -19 c4 -1 7 -5 7 -10 0 -5 -25 -8 -55 -8 -40 0 -55
3 -55 13 0 10 12 13 48 10 26 -3 50 -5 55 -5z m67 -6 c9 -10 9 -15 1 -15 -6 0
-11 6 -11 13 0 8 -4 7 -10 -3 -8 -13 -10 -12 -10 3 0 21 13 22 30 2z m73 6 c4
-1 7 -6 7 -11 0 -6 -13 -9 -30 -8 -16 1 -30 7 -30 13 0 7 10 11 23 9 12 -1 25
-3 30 -3z m195 2 c-10 -2 -28 -2 -40 0 -13 2 -5 4 17 4 22 1 32 -1 23 -4z
m822 -3 c0 -5 -4 -10 -9 -10 -6 0 -13 5 -16 10 -3 6 1 10 9 10 9 0 16 -4 16
-10z m-472 -17 c-5 -26 -38 -29 -38 -4 0 15 6 21 21 21 14 0 19 -5 17 -17z
m66 10 c-5 -5 -12 -12 -16 -18 -4 -6 -8 -2 -8 8 0 9 7 17 17 17 9 0 12 -3 7
-7z m1533 -15 c-3 -8 -6 -5 -6 6 -1 11 2 17 5 13 3 -3 4 -12 1 -19z m41 9 c15
4 15 3 2 -6 -22 -15 -30 -14 -29 7 0 9 3 12 5 5 3 -7 13 -9 22 -6z m-1963 -14
c17 -10 13 -12 -27 -10 -45 1 -56 6 -43 19 9 8 49 3 70 -9z m45 2 c0 -8 -4
-15 -10 -15 -5 0 -10 7 -10 15 0 8 5 15 10 15 6 0 10 -7 10 -15z m1510 5 c0
-5 -4 -10 -9 -10 -6 0 -13 5 -16 10 -3 6 1 10 9 10 9 0 16 -4 16 -10z m150 0
c0 -5 -5 -10 -11 -10 -5 0 -7 5 -4 10 3 6 8 10 11 10 2 0 4 -4 4 -10z m-1440
-15 c0 -8 -5 -15 -11 -15 -5 0 -7 6 -3 13 6 9 4 9 -7 2 -22 -17 -69 -19 -69
-3 0 9 15 14 45 15 34 2 45 -1 45 -12z m-100 -5 c0 -5 -5 -10 -11 -10 -5 0 -7
5 -4 10 3 6 8 10 11 10 2 0 4 -4 4 -10z m1720 0 c0 -5 -5 -10 -11 -10 -5 0 -7
5 -4 10 3 6 8 10 11 10 2 0 4 -4 4 -10z m-2430 -25 c0 -11 -7 -14 -24 -11 -14
2 -27 -1 -30 -7 -3 -8 -7 -9 -13 -2 -4 6 -17 11 -27 10 -11 0 -21 6 -23 13 -4
9 12 12 56 12 48 0 61 -3 61 -15z m1960 -11 c0 -8 -5 -12 -10 -9 -6 4 -8 11
-5 16 9 14 15 11 15 -7z m140 6 c0 -5 -4 -10 -10 -10 -5 0 -10 5 -10 10 0 6 5
10 10 10 6 0 10 -4 10 -10z m440 -16 c0 -10 -11 -11 -38 -5 -2 1 -1 5 2 9 8
13 36 10 36 -4z m50 1 c0 -8 -4 -15 -10 -15 -5 0 -10 7 -10 15 0 8 5 15 10 15
6 0 10 -7 10 -15z m-1732 -2 c-16 -2 -40 -2 -55 0 -16 2 -3 4 27 4 30 0 43 -2
28 -4z m-1102 -31 c-7 -11 -24 -11 -43 1 -7 5 -13 4 -13 0 0 -5 -13 -9 -30 -8
-53 0 -34 24 23 27 54 3 74 -3 63 -20z m594 17 c0 -6 -6 -9 -14 -6 -9 4 -16
-1 -18 -10 -3 -16 -58 -26 -58 -11 0 4 0 11 0 16 -1 4 14 10 32 13 52 10 58
10 58 -2z m43 4 c-7 -2 -19 -2 -25 0 -7 3 -2 5 12 5 14 0 19 -2 13 -5z m337
-4 c0 -5 -4 -8 -9 -5 -5 3 -12 -1 -15 -9 -6 -17 -56 -16 -57 1 0 7 17 13 74
23 4 0 7 -4 7 -10z m1510 1 c0 -5 -4 -10 -10 -10 -5 0 -10 5 -10 10 0 6 5 10
10 10 6 0 10 -4 10 -10z m-2316 -15 c-4 -8 -10 -15 -15 -15 -5 0 -9 7 -9 15 0
8 7 15 15 15 9 0 12 -6 9 -15z m639 8 c-7 -2 -21 -2 -30 0 -10 3 -4 5 12 5 17
0 24 -2 18 -5z m-329 -12 c6 -9 -35 -24 -43 -16 -2 3 1 5 8 5 7 0 9 5 6 10 -3
6 1 10 9 10 8 0 17 -4 20 -9z m2323 3 c-3 -3 -12 -4 -19 -1 -8 3 -5 6 6 6 11
1 17 -2 13 -5z m23 -28 c0 -10 -7 -12 -22 -8 -21 5 -21 6 -2 13 10 4 20 8 22
8 1 1 2 -5 2 -13z m47 -8 c-3 -8 -6 -5 -6 6 -1 11 2 17 5 13 3 -3 4 -12 1 -19z
m-22 2 c3 -5 1 -10 -4 -10 -6 0 -11 5 -11 10 0 6 2 10 4 10 3 0 8 -4 11 -10z
m-2286 -19 c21 -14 4 -30 -29 -28 -21 1 -30 7 -30 20 0 18 34 23 59 8z m389
-3 c-5 -15 -33 -22 -54 -14 -24 9 -6 26 27 26 20 0 29 -4 27 -12z m1525 5 c-7
-2 -21 -2 -30 0 -10 3 -4 5 12 5 17 0 24 -2 18 -5z m494 1 c-3 -3 -12 -4 -19
-1 -8 3 -5 6 6 6 11 1 17 -2 13 -5z m-2557 -24 c0 -11 -6 -20 -13 -20 -7 0
-13 9 -14 20 -1 11 4 20 13 20 8 0 14 -9 14 -20z m37 0 c-1 -11 -7 -20 -14
-20 -7 0 -13 9 -13 20 0 11 6 20 14 20 9 0 14 -9 13 -20z m2303 10 c0 -5 -5
-10 -11 -10 -5 0 -7 5 -4 10 3 6 8 10 11 10 2 0 4 -4 4 -10z m320 0 c0 -5 -4
-10 -10 -10 -5 0 -10 5 -10 10 0 6 5 10 10 10 6 0 10 -4 10 -10z m-3162 -22
c-5 -32 -28 -35 -28 -4 0 17 5 26 16 26 10 0 14 -7 12 -22z m95 2 c6 -23 -10
-37 -25 -22 -12 12 -4 42 11 42 5 0 11 -9 14 -20z m161 4 c9 -23 8 -24 -14
-24 -19 0 -27 20 -13 33 11 11 20 8 27 -9z m2689 0 c-6 -17 -33 -19 -33 -1 0
7 9 13 19 14 14 1 18 -3 14 -13z m57 -9 c0 -2 -9 -3 -20 -2 -11 1 -20 7 -20
14 0 11 5 11 20 3 11 -6 20 -13 20 -15z m20 10 c0 -8 -2 -15 -4 -15 -2 0 -6 7
-10 15 -3 8 -1 15 4 15 6 0 10 -7 10 -15z m37 -7 c1 -10 -4 -18 -10 -18 -7 0
-13 8 -13 18 0 10 5 19 11 19 6 0 12 -9 12 -19z m190 16 c-3 -3 -12 -4 -19 -1
-8 3 -5 6 6 6 11 1 17 -2 13 -5z m-400 -20 c-3 -3 -12 -4 -19 -1 -8 3 -5 6 6
6 11 1 17 -2 13 -5z m33 -4 c0 -5 -5 -10 -11 -10 -5 0 -7 5 -4 10 3 6 8 10 11
10 2 0 4 -4 4 -10z m-2680 -4 c0 -2 -7 -6 -15 -10 -8 -3 -15 -1 -15 4 0 6 7
10 15 10 8 0 15 -2 15 -4z m123 -3 c-7 -2 -19 -2 -25 0 -7 3 -2 5 12 5 14 0
19 -2 13 -5z m67 -13 c0 -11 -6 -20 -13 -20 -7 0 -13 9 -14 20 -1 11 4 20 13
20 8 0 14 -9 14 -20z m2857 14 c-3 -3 -12 -4 -19 -1 -8 3 -5 6 6 6 11 1 17 -2
13 -5z m203 -24 c0 -20 -5 -30 -15 -30 -10 0 -15 10 -15 30 0 20 5 30 15 30
10 0 15 -10 15 -30z m-2952 -10 c-1 -16 -7 -30 -13 -30 -5 0 -11 14 -11 30 -1
20 3 30 12 30 10 0 14 -10 12 -30z m39 10 c1 -11 -4 -20 -13 -20 -8 0 -14 9
-14 20 0 11 6 20 13 20 7 0 13 -9 14 -20z m496 5 c-3 -13 -53 -20 -53 -7 0 15
13 23 35 20 11 -2 19 -7 18 -13z m1533 -12 c-10 -10 -19 5 -10 18 6 11 8 11
12 0 2 -7 1 -15 -2 -18z m73 0 c2 -1 -6 -1 -18 0 -11 1 -21 8 -21 15 0 12 3
12 18 1 9 -7 19 -14 21 -16z m-1991 5 c-7 -20 -58 -23 -58 -4 0 11 10 16 31
16 20 0 29 -4 27 -12z m2246 4 c3 -5 -1 -9 -9 -9 -8 0 -12 4 -9 9 3 4 7 8 9 8
2 0 6 -4 9 -8z m46 -2 c0 -5 -7 -10 -15 -10 -8 0 -15 5 -15 10 0 6 7 10 15 10
8 0 15 -4 15 -10z m30 0 c0 -5 -4 -10 -10 -10 -5 0 -10 5 -10 10 0 6 5 10 10
10 6 0 10 -4 10 -10z m257 4 c-3 -3 -12 -4 -19 -1 -8 3 -5 6 6 6 11 1 17 -2
13 -5z m23 -24 c0 -5 -7 -10 -15 -10 -8 0 -15 5 -15 10 0 6 7 10 15 10 8 0 15
-4 15 -10z m57 4 c-3 -3 -12 -4 -19 -1 -8 3 -5 6 6 6 11 1 17 -2 13 -5z m-330
-10 c-3 -3 -12 -4 -19 -1 -8 3 -5 6 6 6 11 1 17 -2 13 -5z m-2440 -10 c-3 -3
-12 -4 -19 -1 -8 3 -5 6 6 6 11 1 17 -2 13 -5z m2623 -4 c0 -5 -2 -10 -4 -10
-3 0 -8 5 -11 10 -3 6 -1 10 4 10 6 0 11 -4 11 -10z m50 0 c0 -5 -4 -10 -10
-10 -5 0 -10 5 -10 10 0 6 5 10 10 10 6 0 10 -4 10 -10z m-310 -10 c0 -5 -4
-10 -9 -10 -6 0 -13 5 -16 10 -3 6 1 10 9 10 9 0 16 -4 16 -10z m35 0 c-3 -5
-10 -10 -16 -10 -5 0 -9 5 -9 10 0 6 7 10 16 10 8 0 12 -4 9 -10z m35 -15 c0
-14 0 -27 0 -30 0 -3 -3 -6 -7 -7 -3 -2 -8 12 -9 30 -1 17 2 32 7 32 5 0 9
-11 9 -25z m277 19 c-3 -3 -12 -4 -19 -1 -8 3 -5 6 6 6 11 1 17 -2 13 -5z
m-2599 -20 c-2 -10 -15 -18 -30 -20 -22 -2 -28 2 -28 17 0 15 7 19 31 19 23 0
30 -4 27 -16z m392 5 c0 -13 -16 -18 -38 -12 -32 8 -27 20 8 20 17 0 30 -4 30
-8z m1557 -21 c-3 -8 -6 -5 -6 6 -1 11 2 17 5 13 3 -3 4 -12 1 -19z m49 -5
c-10 -10 -19 5 -10 18 6 11 8 11 12 0 2 -7 1 -15 -2 -18z m291 11 c-3 -3 -12
-4 -19 -1 -8 3 -5 6 6 6 11 1 17 -2 13 -5z m533 -14 c0 -5 -4 -10 -10 -10 -5
0 -10 5 -10 10 0 6 5 10 10 10 6 0 10 -4 10 -10z m-423 -68 c4 -30 2 -32 -27
-32 -17 0 -29 4 -25 10 3 5 12 7 19 4 8 -3 17 -1 21 5 3 6 -1 11 -11 11 -16 0
-16 1 2 15 14 11 15 14 3 9 -10 -3 -19 -1 -23 4 -3 5 5 8 16 7 17 -1 23 -9 25
-33z m-3019 16 c-6 -18 -28 -21 -28 -4 0 9 7 16 16 16 9 0 14 -5 12 -12z m212
8 c0 -2 -7 -9 -15 -16 -12 -10 -15 -10 -15 4 0 9 7 16 15 16 8 0 15 -2 15 -4z
m358 -28 c2 -9 -6 -18 -18 -21 -14 -4 -20 0 -20 12 0 33 32 41 38 9z m2379 -8
c-1 -11 -7 -20 -14 -20 -11 0 -11 4 -1 20 7 11 14 20 15 20 1 0 1 -9 0 -20z
m-2281 -2 c8 -12 -21 -38 -43 -38 -7 0 -13 11 -13 25 0 20 5 25 24 25 14 0 28
-5 32 -12z m2562 -17 c38 -27 43 -75 13 -112 -17 -21 -22 -22 -40 -11 -11 6
-32 12 -46 12 -14 0 -25 5 -25 10 0 6 -9 10 -20 10 -27 0 -15 -26 18 -39 15
-5 21 -10 14 -10 -25 -2 -71 32 -82 60 -13 31 -6 64 19 93 22 25 106 18 149
-13z m-2467 9 c5 0 9 -4 9 -10 0 -5 -9 -10 -20 -10 -15 0 -20 -7 -20 -25 0
-19 5 -25 21 -25 11 0 17 -4 14 -10 -3 -5 -15 -10 -26 -10 -19 0 -21 8 -21 70
0 31 1 33 18 26 9 -3 20 -6 25 -6z m455 -80 l1 -90 -64 0 c-56 0 -63 2 -63 19
0 16 8 20 38 23 37 3 37 3 37 48 l0 45 -43 0 c-43 0 -46 2 -36 29 5 12 21 16
68 16 l61 0 1 -90z m1694 80 c0 -5 -5 -10 -11 -10 -5 0 -7 5 -4 10 3 6 8 10
11 10 2 0 4 -4 4 -10z m-2860 -21 c0 -4 -4 -11 -10 -14 -5 -3 -10 -1 -10 4 0
17 -37 13 -44 -4 -8 -22 -36 -18 -36 4 0 15 8 21 33 23 39 4 67 -1 67 -13z
m126 -6 c-10 -10 -19 5 -10 18 6 11 8 11 12 0 2 -7 1 -15 -2 -18z m21 5 c-3
-8 -6 -5 -6 6 -1 11 2 17 5 13 3 -3 4 -12 1 -19z m53 12 c0 -5 7 -7 15 -4 8 4
15 1 15 -5 0 -6 -11 -11 -25 -11 -14 0 -25 6 -25 13 0 8 -4 7 -10 -3 -8 -13
-10 -12 -10 3 0 10 8 17 20 17 11 0 20 -4 20 -10z m2618 3 c-10 -2 -26 -2 -35
0 -10 3 -2 5 17 5 19 0 27 -2 18 -5z m-1997 -60 c-9 -17 -10 -17 -16 0 -4 9
-1 25 6 34 13 15 14 15 17 0 2 -9 -1 -24 -7 -34z m2057 40 c-16 -2 -40 -2 -55
0 -16 2 -3 4 27 4 30 0 43 -2 28 -4z m92 -13 c0 -11 -7 -20 -15 -20 -18 0 -20
19 -2 21 6 1 -1 5 -18 9 l-30 8 33 1 c26 1 32 -3 32 -19z m-2456 -11 c-8 -14
-34 -10 -34 5 0 9 7 12 20 9 11 -3 17 -9 14 -14z m439 14 c-7 -2 -19 -2 -25 0
-7 3 -2 5 12 5 14 0 19 -2 13 -5z m60 0 c-7 -2 -19 -2 -25 0 -7 3 -2 5 12 5
14 0 19 -2 13 -5z m-693 -13 c-10 -6 -11 -10 -2 -10 6 0 12 -4 12 -10 0 -5 -6
-10 -14 -10 -12 0 -14 14 -7 38 1 1 7 2 14 2 8 0 7 -4 -3 -10z m50 6 c0 -2 -7
-6 -15 -10 -8 -3 -15 -1 -15 4 0 6 7 10 15 10 8 0 15 -2 15 -4z m40 0 c0 -2
-7 -6 -15 -10 -8 -3 -15 -1 -15 4 0 6 7 10 15 10 8 0 15 -2 15 -4z m191 -26
c10 0 19 -4 19 -10 0 -5 -13 -10 -29 -10 -26 0 -28 3 -23 28 4 19 7 22 10 10
2 -10 12 -18 23 -18z m2046 8 c-3 -8 -6 -5 -6 6 -1 11 2 17 5 13 3 -3 4 -12 1
-19z m39 7 c-8 -8 -17 -15 -20 -15 -3 0 -6 7 -6 15 0 9 9 15 21 15 18 0 19 -2
5 -15z m104 5 c0 -5 -4 -10 -10 -10 -5 0 -10 5 -10 10 0 6 5 10 10 10 6 0 10
-4 10 -10z m70 0 c0 -5 -4 -10 -10 -10 -5 0 -10 5 -10 10 0 6 5 10 10 10 6 0
10 -4 10 -10z m40 -2 c0 -4 -7 -8 -15 -8 -8 0 -15 4 -15 8 0 5 7 9 15 9 8 0
15 -4 15 -9z m-1823 -45 c-3 -10 -5 -2 -5 17 0 19 2 27 5 18 2 -10 2 -26 0
-35z m-117 18 c0 -6 -9 -9 -19 -8 -11 0 -17 5 -15 9 7 11 34 10 34 -1z m60 -1
c0 -5 -2 -10 -4 -10 -3 0 -8 5 -11 10 -3 6 -1 10 4 10 6 0 11 -4 11 -10z
m-1047 -17 c-13 -2 -35 -2 -50 0 -16 2 -5 4 22 4 28 0 40 -2 28 -4z m395 -23
c2 -21 -2 -30 -12 -30 -10 0 -13 8 -10 25 2 14 0 25 -6 25 -5 0 -10 -7 -10
-15 0 -8 -6 -15 -13 -15 -7 0 -13 9 -13 20 0 16 7 20 31 20 27 0 31 -4 33 -30z
m39 10 c1 -11 -4 -20 -10 -20 -7 0 -13 9 -13 20 0 11 5 20 11 20 6 0 11 -9 12
-20z m548 -28 c-3 -3 -11 0 -18 7 -9 10 -8 11 6 5 10 -3 15 -9 12 -12z m55 4
c-7 -7 -13 -7 -20 0 -6 6 -3 10 10 10 13 0 16 -4 10 -10z m1660 -6 c0 -5 -4
-10 -10 -10 -5 0 -10 5 -10 10 0 6 5 10 10 10 6 0 10 -4 10 -10z m50 0 c0 -5
-4 -10 -10 -10 -5 0 -10 5 -10 10 0 6 5 10 10 10 6 0 10 -4 10 -10z m50 0 c0
-5 -4 -10 -10 -10 -5 0 -10 5 -10 10 0 6 5 10 10 10 6 0 10 -4 10 -10z m50 0
c0 -5 -4 -10 -10 -10 -5 0 -10 5 -10 10 0 6 5 10 10 10 6 0 10 -4 10 -10z m50
0 c0 -5 -4 -10 -10 -10 -5 0 -10 5 -10 10 0 6 5 10 10 10 6 0 10 -4 10 -10z
m50 6 c0 -3 -4 -8 -10 -11 -5 -3 -10 -1 -10 4 0 6 5 11 10 11 6 0 10 -2 10 -4z
m-2593 -12 c-3 -3 -12 -4 -19 -1 -8 3 -5 6 6 6 11 1 17 -2 13 -5z m80 0 c-3
-3 -12 -4 -19 -1 -8 3 -5 6 6 6 11 1 17 -2 13 -5z m2593 -8 c0 -3 -4 -8 -10
-11 -5 -3 -10 -1 -10 4 0 6 5 11 10 11 6 0 10 -2 10 -4z m-2450 -25 c0 -12
-20 -25 -27 -18 -7 7 6 27 18 27 5 0 9 -4 9 -9z m2930 -1 c0 -5 -2 -10 -4 -10
-3 0 -8 5 -11 10 -3 6 -1 10 4 10 6 0 11 -4 11 -10z m160 -10 c0 -5 -4 -10 -9
-10 -6 0 -13 5 -16 10 -3 6 1 10 9 10 9 0 16 -4 16 -10z m-2993 -32 c-3 -7 -5
-2 -5 12 0 14 2 19 5 13 2 -7 2 -19 0 -25z m-271 0 c-5 -34 -36 -36 -36 -4 0
19 5 26 20 26 15 0 19 -6 16 -22z m88 6 c8 -20 -1 -34 -20 -34 -8 0 -14 8 -14
18 0 33 23 44 34 16z m156 1 c0 -8 -4 -15 -10 -15 -5 0 -10 7 -10 15 0 8 5 15
10 15 6 0 10 -7 10 -15z m57 -7 c-3 -8 -6 -5 -6 6 -1 11 2 17 5 13 3 -3 4 -12
1 -19z m2433 8 c0 -2 -7 -7 -16 -10 -8 -3 -12 -2 -9 4 6 10 25 14 25 6z m66
-8 c4 -6 2 -14 -4 -16 -7 -2 -12 -17 -12 -32 0 -16 -3 -31 -8 -34 -6 -3 -8 77
-3 92 3 7 21 0 27 -10z m-171 -8 c3 -5 1 -10 -4 -10 -6 0 -11 5 -11 10 0 6 2
10 4 10 3 0 8 -4 11 -10z m225 0 c0 -5 -5 -10 -11 -10 -5 0 -7 5 -4 10 3 6 8
10 11 10 2 0 4 -4 4 -10z m407 -6 c-3 -3 -12 -4 -19 -1 -8 3 -5 6 6 6 11 1 17
-2 13 -5z m-777 -14 c0 -5 -5 -10 -11 -10 -5 0 -7 5 -4 10 3 6 8 10 11 10 2 0
4 -4 4 -10z m-113 -6 c-3 -3 -12 -4 -19 -1 -8 3 -5 6 6 6 11 1 17 -2 13 -5z
m70 0 c-3 -3 -12 -4 -19 -1 -8 3 -5 6 6 6 11 1 17 -2 13 -5z m186 -1 c-7 -2
-21 -2 -30 0 -10 3 -4 5 12 5 17 0 24 -2 18 -5z m57 -3 c0 -5 -2 -10 -4 -10
-3 0 -8 5 -11 10 -3 6 -1 10 4 10 6 0 11 -4 11 -10z m-1890 -90 l0 -90 -65 0
c-58 0 -65 2 -65 20 0 16 5 19 33 16 43 -5 57 9 57 55 0 33 -4 40 -25 45 -14
3 -34 4 -45 1 -16 -4 -20 0 -20 19 0 23 3 24 65 24 l65 0 0 -90z m1940 70 c0
-11 -4 -20 -8 -20 -4 0 -8 9 -9 20 -1 11 2 20 8 20 5 0 9 -9 9 -20z m527 14
c-3 -3 -12 -4 -19 -1 -8 3 -5 6 6 6 11 1 17 -2 13 -5z m-893 -16 c-3 -4 -9 -8
-15 -8 -5 0 -9 4 -9 8 0 5 7 9 15 9 8 0 12 -4 9 -9z m76 -4 c0 -2 -7 -4 -15
-4 -8 0 -15 4 -15 10 0 5 7 7 15 4 8 -4 15 -8 15 -10z m-2270 -4 c0 -5 -4 -10
-10 -10 -5 0 -10 5 -10 10 0 6 5 10 10 10 6 0 10 -4 10 -10z m3087 4 c-3 -3
-12 -4 -19 -1 -8 3 -5 6 6 6 11 1 17 -2 13 -5z m-3293 -19 c3 -8 1 -15 -4 -15
-6 0 -10 7 -10 15 0 8 2 15 4 15 2 0 6 -7 10 -15z m491 -37 c-2 -39 -7 -54
-19 -56 -13 -3 -16 5 -16 36 0 49 8 72 25 72 9 0 12 -15 10 -52z m2025 42 c0
-5 -4 -10 -10 -10 -5 0 -10 5 -10 10 0 6 5 10 10 10 6 0 10 -4 10 -10z m-1907
-7 c-7 -2 -19 -2 -25 0 -7 3 -2 5 12 5 14 0 19 -2 13 -5z m64 1 c-3 -3 -12 -4
-19 -1 -8 3 -5 6 6 6 11 1 17 -2 13 -5z m1800 0 c-3 -3 -12 -4 -19 -1 -8 3 -5
6 6 6 11 1 17 -2 13 -5z m-70 -20 c-3 -3 -12 -4 -19 -1 -8 3 -5 6 6 6 11 1 17
-2 13 -5z m70 0 c-3 -3 -12 -4 -19 -1 -8 3 -5 6 6 6 11 1 17 -2 13 -5z m-1860
-20 c-3 -3 -12 -4 -19 -1 -8 3 -5 6 6 6 11 1 17 -2 13 -5z m63 2 c0 -3 -4 -8
-10 -11 -5 -3 -10 -1 -10 4 0 6 5 11 10 11 6 0 10 -2 10 -4z m78 -13 c-10 -2
-26 -2 -35 0 -10 3 -2 5 17 5 19 0 27 -2 18 -5z m1959 1 c-3 -3 -12 -4 -19 -1
-8 3 -5 6 6 6 11 1 17 -2 13 -5z m-2397 -29 c-7 -8 -16 -15 -21 -15 -5 0 -9 7
-9 15 0 9 9 15 21 15 18 0 19 -2 9 -15z m2346 0 c-4 -24 -16 -30 -16 -7 0 12
4 22 9 22 5 0 8 -7 7 -15z m54 5 c0 -5 -4 -10 -9 -10 -6 0 -13 5 -16 10 -3 6
1 10 9 10 9 0 16 -4 16 -10z m145 0 c-3 -5 -11 -10 -16 -10 -6 0 -7 5 -4 10 3
6 11 10 16 10 6 0 7 -4 4 -10z m-438 -22 c-3 -8 -6 -5 -6 6 -1 11 2 17 5 13 3
-3 4 -12 1 -19z m-2383 5 c2 7 5 4 5 -5 1 -13 -7 -18 -29 -18 -20 0 -30 5 -30
15 0 11 5 12 24 5 17 -6 26 -5 30 3z m56 -10 c0 -7 -9 -13 -20 -13 -11 0 -20
6 -20 13 0 7 9 13 20 13 11 0 20 -6 20 -13z m515 -1 c-3 -3 -11 0 -18 7 -9 10
-8 11 6 5 10 -3 15 -9 12 -12z m-385 -2 c0 -5 -4 -10 -10 -10 -5 0 -10 5 -10
10 0 6 5 10 10 10 6 0 10 -4 10 -10z m2487 4 c-3 -3 -12 -4 -19 -1 -8 3 -5 6
6 6 11 1 17 -2 13 -5z m-2410 -34 c-3 -11 -1 -20 4 -20 5 0 9 9 9 20 0 11 5
20 10 20 6 0 10 -5 10 -11 0 -5 5 -7 10 -4 6 3 10 0 10 -7 0 -9 2 -10 8 -1 9
15 41 21 41 8 1 -5 -2 -18 -5 -27 -6 -20 -44 -25 -45 -5 0 10 -2 10 -6 0 -5
-14 -63 -18 -63 -5 0 15 13 52 17 52 3 0 3 -9 0 -20z m2410 -1 c1 -12 1 -20 0
-18 -2 2 -9 12 -16 22 -11 14 -11 17 1 17 7 0 14 -10 15 -21z m53 5 c0 -8 -4
-12 -10 -9 -5 3 -10 10 -10 16 0 5 5 9 10 9 6 0 10 -7 10 -16z m510 6 c0 -5
-5 -10 -11 -10 -5 0 -7 5 -4 10 3 6 8 10 11 10 2 0 4 -4 4 -10z m-3098 -15 c5
-6 8 -5 8 3 0 7 13 12 29 12 32 0 48 -14 30 -26 -8 -4 -9 -3 -5 4 4 7 3 12 -3
12 -5 0 -12 -6 -14 -12 -4 -10 -8 -9 -16 2 -7 10 -11 11 -11 3 0 -8 -13 -13
-30 -13 -20 0 -30 5 -30 15 0 17 30 17 42 0z m-545 -35 c1 -14 0 -19 -3 -12
-8 18 -21 15 -27 -9 -5 -17 -9 -19 -26 -9 -21 10 -28 40 -14 54 4 4 21 6 38 4
24 -2 30 -8 32 -28z m3653 26 c0 -11 -19 -15 -25 -6 -3 5 1 10 9 10 9 0 16 -2
16 -4z m60 -6 c0 -5 -4 -10 -10 -10 -5 0 -10 5 -10 10 0 6 5 10 10 10 6 0 10
-4 10 -10z m-570 -45 c0 -19 -4 -35 -8 -35 -5 0 -9 16 -10 35 -1 19 3 35 8 35
6 0 10 -16 10 -35z m-2720 21 c0 -3 -4 -8 -10 -11 -5 -3 -10 -1 -10 4 0 6 5
11 10 11 6 0 10 -2 10 -4z m50 -6 c0 -5 -4 -10 -10 -10 -5 0 -10 5 -10 10 0 6
5 10 10 10 6 0 10 -4 10 -10z m50 6 c0 -3 -4 -8 -10 -11 -5 -3 -10 -1 -10 4 0
6 5 11 10 11 6 0 10 -2 10 -4z m2503 -7 c7 0 3 -4 -8 -9 -29 -13 -35 -12 -35
6 0 11 5 14 16 10 9 -3 21 -6 27 -7z m-2777 -10 c3 -6 1 -16 -6 -22 -10 -9
-12 -8 -7 5 3 9 1 19 -6 22 -9 3 -9 5 0 5 6 1 15 -4 19 -10z m2654 1 c0 -5 -4
-10 -10 -10 -5 0 -10 5 -10 10 0 6 5 10 10 10 6 0 10 -4 10 -10z m320 -10 c0
-11 -4 -20 -10 -20 -5 0 -10 9 -10 20 0 11 5 20 10 20 6 0 10 -9 10 -20z m40
0 c0 -11 -4 -20 -10 -20 -5 0 -10 9 -10 20 0 11 5 20 10 20 6 0 10 -9 10 -20z
m207 -2 c-3 -8 -6 -5 -6 6 -1 11 2 17 5 13 3 -3 4 -12 1 -19z m20 0 c-3 -8 -6
-5 -6 6 -1 11 2 17 5 13 3 -3 4 -12 1 -19z m33 13 c0 -6 -4 -13 -10 -16 -5 -3
-10 1 -10 9 0 9 5 16 10 16 6 0 10 -4 10 -9z m-2760 -5 c0 -2 -7 -6 -15 -10
-8 -3 -15 -1 -15 4 0 6 7 10 15 10 8 0 15 -2 15 -4z m2589 -15 c-8 -3 -14 -12
-14 -20 0 -8 -7 -16 -15 -18 -9 -3 -11 -1 -5 4 6 4 10 14 11 21 2 28 5 31 21
25 13 -5 14 -8 2 -12z m221 15 c0 -3 -4 -8 -10 -11 -5 -3 -10 -1 -10 4 0 6 5
11 10 11 6 0 10 -2 10 -4z m77 -2 c-3 -3 -12 -4 -19 -1 -8 3 -5 6 6 6 11 1 17
-2 13 -5z m63 -22 c0 -5 -7 -9 -15 -9 -8 0 -12 4 -9 9 3 4 9 8 15 8 5 0 9 -4
9 -8z m-3610 -17 c0 -8 -9 -15 -20 -15 -11 0 -20 7 -20 15 0 8 9 15 20 15 11
0 20 -7 20 -15z m60 8 c-8 -3 -18 -11 -22 -17 -5 -7 -8 -4 -8 7 0 11 7 17 23
16 15 0 17 -2 7 -6z m598 -23 c1 -19 -2 -30 -10 -30 -8 0 -13 13 -13 30 -1 17
4 30 10 30 6 0 12 -13 13 -30z m3210 17 c9 -10 4 -13 -19 -12 -32 0 -39 11
-11 18 9 3 18 5 18 6 1 0 6 -5 12 -12z m312 3 c0 -5 -4 -10 -10 -10 -5 0 -10
5 -10 10 0 6 5 10 10 10 6 0 10 -4 10 -10z m-3593 -16 c-3 -3 -12 -4 -19 -1
-8 3 -5 6 6 6 11 1 17 -2 13 -5z m2963 -14 c0 -5 -4 -10 -10 -10 -5 0 -10 5
-10 10 0 6 5 10 10 10 6 0 10 -4 10 -10z m50 0 c0 -5 -4 -10 -10 -10 -5 0 -10
5 -10 10 0 6 5 10 10 10 6 0 10 -4 10 -10z m613 3 c-29 -2 -78 -2 -110 0 -32
2 -8 3 52 3 61 0 87 -1 58 -3z m-453 -7 c0 -3 -4 -8 -10 -11 -5 -3 -10 -1 -10
4 0 6 5 11 10 11 6 0 10 -2 10 -4z m-3760 -37 c0 -14 -7 -19 -25 -19 -14 0
-25 6 -26 13 0 10 -2 10 -6 0 -7 -20 -33 -15 -33 5 0 26 4 28 49 24 32 -3 41
-8 41 -23z m859 24 l-77 -4 -1 -116 c-1 -65 -4 -119 -6 -122 -3 -2 -5 53 -5
122 l0 127 83 -2 82 -2 -76 -3z m114 0 c-7 -2 -19 -2 -25 0 -7 3 -2 5 12 5 14
0 19 -2 13 -5z m44 1 c-3 -3 -12 -4 -19 -1 -8 3 -5 6 6 6 11 1 17 -2 13 -5z
m2803 -20 c0 -2 -9 -4 -21 -4 -11 0 -18 4 -14 10 5 8 35 3 35 -6z m-3160 2 c0
-11 -19 -15 -25 -6 -3 5 1 10 9 10 9 0 16 -2 16 -4z m2177 -43 c-3 -10 -5 -4
-5 12 0 17 2 24 5 18 2 -7 2 -21 0 -30z m33 5 c0 -5 -4 -8 -10 -8 -5 0 -10 10
-10 23 0 18 2 19 10 7 5 -8 10 -18 10 -22z m30 22 c0 13 1 13 10 0 15 -22 12
-29 -10 -27 -13 1 -20 8 -20 22 0 16 2 17 10 5 9 -13 10 -13 10 0z m64 -2 c-3
-4 -9 -8 -15 -8 -5 0 -9 4 -9 8 0 5 7 9 15 9 8 0 12 -4 9 -9z m236 2 c0 -5 -2
-10 -4 -10 -3 0 -8 5 -11 10 -3 6 -1 10 4 10 6 0 11 -4 11 -10z m140 0 c0 -5
-9 -10 -20 -10 -11 0 -20 5 -20 10 0 6 9 10 20 10 11 0 20 -4 20 -10z m70 -2
c0 -4 -9 -8 -21 -8 -11 0 -18 4 -15 8 3 5 12 9 21 9 8 0 15 -4 15 -9z m503 -5
c-24 -2 -62 -2 -85 0 -24 2 -5 4 42 4 47 0 66 -2 43 -4z m240 0 c-13 -2 -35
-2 -50 0 -16 2 -5 4 22 4 28 0 40 -2 28 -4z m-1333 -13 c0 -5 -4 -10 -10 -10
-5 0 -10 5 -10 10 0 6 5 10 10 10 6 0 10 -4 10 -10z m-2160 -14 c0 -20 -19
-31 -32 -18 -6 6 -7 15 -4 21 10 16 36 13 36 -3z m100 -1 c0 -16 -35 -21 -44
-6 -8 12 4 21 26 21 10 0 18 -7 18 -15z m2226 -12 c-10 -10 -19 5 -10 18 6 11
8 11 12 0 2 -7 1 -15 -2 -18z m64 18 c0 -5 -7 -11 -15 -15 -15 -5 -20 5 -8 17
9 10 23 9 23 -2z m60 -1 c0 -5 -4 -10 -10 -10 -5 0 -10 5 -10 10 0 6 5 10 10
10 6 0 10 -4 10 -10z m1360 6 c0 -3 -4 -8 -10 -11 -5 -3 -10 -1 -10 4 0 6 5
11 10 11 6 0 10 -2 10 -4z m-4400 -26 c0 -5 -5 -10 -11 -10 -5 0 -7 5 -4 10 3
6 8 10 11 10 2 0 4 -4 4 -10z m-50 -36 c0 -8 -4 -14 -10 -14 -5 0 -10 9 -10
21 0 11 5 17 10 14 6 -3 10 -13 10 -21z m740 5 c0 -4 -7 -6 -15 -3 -8 4 -15
10 -15 15 0 4 7 6 15 3 8 -4 15 -10 15 -15z m2660 5 c0 -8 -5 -12 -10 -9 -6 4
-8 11 -5 16 9 14 15 11 15 -7z m17 -6 c-3 -8 -6 -5 -6 6 -1 11 2 17 5 13 3 -3
4 -12 1 -19z m33 6 c0 -8 -5 -12 -10 -9 -6 4 -8 11 -5 16 9 14 15 11 15 -7z
m-3597 -1 c-7 -2 -21 -2 -30 0 -10 3 -4 5 12 5 17 0 24 -2 18 -5z m192 -2 c3
-5 1 -12 -5 -16 -5 -3 -10 1 -10 9 0 18 6 21 15 7z m530 -1 c-3 -5 -10 -10
-16 -10 -5 0 -9 5 -9 10 0 6 7 10 16 10 8 0 12 -4 9 -10z m428 -24 c8 -19 -70
-97 -89 -89 -21 8 -18 13 28 60 46 47 53 50 61 29z m2740 -11 c-7 -21 -13 -19
-13 6 0 11 4 18 10 14 5 -3 7 -12 3 -20z m-3106 9 c-3 -3 -12 -4 -19 -1 -8 3
-5 6 6 6 11 1 17 -2 13 -5z m100 -9 c0 -8 -4 -12 -9 -9 -4 3 -8 9 -8 15 0 5 4
9 8 9 5 0 9 -7 9 -15z m2543 -4 c0 -6 -4 -13 -10 -16 -5 -3 -10 1 -10 9 0 9 5
16 10 16 6 0 10 -4 10 -9z m50 -5 c0 -3 -4 -8 -10 -11 -5 -3 -10 -1 -10 4 0 6
5 11 10 11 6 0 10 -2 10 -4z m-3320 -24 c0 -5 -7 -9 -15 -9 -8 0 -12 4 -9 9 3
4 9 8 15 8 5 0 9 -4 9 -8z m3515 -22 c-3 -5 -10 -10 -16 -10 -5 0 -9 5 -9 10
0 6 7 10 16 10 8 0 12 -4 9 -10z m65 0 c0 -5 -2 -10 -4 -10 -3 0 -8 5 -11 10
-3 6 -1 10 4 10 6 0 11 -4 11 -10z m-3540 -10 c-8 -5 -10 -10 -5 -10 15 0 12
-63 -3 -68 -12 -4 -16 13 -12 56 1 13 -4 22 -13 22 -10 0 -13 -8 -9 -25 3 -17
0 -25 -10 -25 -9 0 -14 11 -13 30 0 28 2 30 40 30 30 0 36 -3 25 -10z m545 0
c-3 -5 -11 -10 -16 -10 -6 0 -7 5 -4 10 3 6 11 10 16 10 6 0 7 -4 4 -10z
m2559 -14 c-2 -6 -13 -12 -24 -12 -11 0 -20 6 -20 12 0 6 11 12 24 12 14 0 23
-5 20 -12z m-104 -46 c0 -5 -4 -10 -10 -10 -5 0 -10 5 -10 10 0 6 5 10 10 10
6 0 10 -4 10 -10z m227 -12 c-3 -8 -6 -5 -6 6 -1 11 2 17 5 13 3 -3 4 -12 1
-19z m53 4 c0 -4 -9 -8 -20 -8 -11 0 -20 4 -20 8 0 4 9 8 20 8 11 0 20 -4 20
-8z m50 -2 c0 -5 -5 -10 -11 -10 -5 0 -7 5 -4 10 3 6 8 10 11 10 2 0 4 -4 4
-10z m-2790 -10 c0 -5 -5 -10 -11 -10 -5 0 -7 5 -4 10 3 6 8 10 11 10 2 0 4
-4 4 -10z m-475 -10 c3 -5 1 -10 -4 -10 -6 0 -11 5 -11 10 0 6 2 10 4 10 3 0
8 -4 11 -10z m-45 -42 c0 -5 -4 -7 -9 -3 -5 3 -12 2 -15 -3 -4 -7 -29 -8 -83
-3 -7 1 -13 5 -13 10 0 5 27 9 60 9 33 -1 60 -5 60 -10z m50 -8 c-6 -11 -13
-20 -16 -20 -3 0 -2 5 1 10 3 6 0 10 -7 10 -9 0 -9 3 2 10 24 15 32 12 20 -10z
m3295 10 c3 -5 -1 -10 -9 -10 -9 0 -16 5 -16 10 0 6 4 10 9 10 6 0 13 -4 16
-10z m65 0 c0 -5 -5 -10 -11 -10 -5 0 -7 5 -4 10 3 6 8 10 11 10 2 0 4 -4 4
-10z m-2820 -11 c0 -5 -12 -9 -26 -9 -14 0 -23 4 -20 8 7 11 46 12 46 1z
m2345 -8 c-6 -11 -45 -10 -45 1 0 4 12 8 26 8 14 0 23 -4 19 -9z m345 5 c0
-11 -19 -15 -25 -6 -3 5 1 10 9 10 9 0 16 -2 16 -4z m-3173 -36 c-1 -11 -4
-20 -8 -20 -10 0 -19 27 -12 34 12 12 22 5 20 -14z m3106 0 c-3 -11 -8 -20
-12 -20 -4 0 -7 9 -7 20 0 11 6 20 12 20 7 0 10 -8 7 -20z m-2723 -21 c0 -9
-51 -22 -57 -15 -3 2 -2 9 1 14 6 11 56 11 56 1z m2787 5 c-3 -3 -12 -4 -19
-1 -8 3 -5 6 6 6 11 1 17 -2 13 -5z m-3440 -19 c0 -12 -8 -15 -31 -11 -40 5
-38 5 -32 14 2 4 18 9 34 10 20 1 29 -2 29 -13z m53 0 c0 -8 -5 -15 -11 -15
-5 0 -7 5 -4 10 3 6 2 10 -4 10 -5 0 -12 -6 -14 -12 -3 -8 -6 -6 -6 5 -1 11 6
17 19 17 11 0 20 -7 20 -15z m300 7 c0 -5 -13 -9 -30 -10 -16 0 -30 4 -30 9 0
5 14 9 30 9 17 0 30 -4 30 -8z m150 1 c0 -5 -11 -9 -25 -9 -14 -1 -25 2 -25 7
0 5 11 9 25 9 14 0 25 -3 25 -7z m310 -2 c0 -6 -5 -13 -12 -17 -7 -4 -8 -3 -4
4 8 13 -6 16 -18 5 -14 -14 -86 -11 -86 3 0 10 16 14 60 14 33 0 60 -4 60 -9z
m2770 -1 c0 -5 -4 -10 -10 -10 -5 0 -10 5 -10 10 0 6 5 10 10 10 6 0 10 -4 10
-10z m54 2 c3 -5 -1 -9 -9 -9 -8 0 -12 4 -9 9 3 4 7 8 9 8 2 0 6 -4 9 -8z
m-3499 -12 c3 -5 -1 -10 -10 -10 -9 0 -13 5 -10 10 3 6 8 10 10 10 2 0 7 -4
10 -10z m135 0 c0 -5 -4 -10 -9 -10 -6 0 -13 5 -16 10 -3 6 1 10 9 10 9 0 16
-4 16 -10z m-80 -19 c0 -14 -18 -23 -30 -16 -6 4 -8 11 -5 16 8 12 35 12 35 0z
m3190 5 c0 -11 -19 -15 -25 -6 -3 5 1 10 9 10 9 0 16 -2 16 -4z m-3330 -20 c0
-9 -5 -16 -11 -16 -5 0 -7 5 -4 10 3 6 1 10 -4 10 -6 0 -11 -6 -12 -12 0 -10
-2 -10 -6 0 -2 6 -9 12 -14 12 -6 0 -7 -5 -4 -10 4 -6 -5 -10 -24 -8 -53 4
-35 24 24 27 44 2 55 -1 55 -13z m84 -25 c-12 -2 -14 -5 -4 -11 9 -5 9 -9 1
-14 -6 -4 -14 1 -18 10 -4 10 -2 19 5 22 6 2 9 11 6 20 -4 13 -2 13 11 -3 15
-19 15 -20 -1 -24z m556 10 c0 -6 -4 -13 -10 -16 -5 -3 -10 1 -10 9 0 9 5 16
10 16 6 0 10 -4 10 -9z m2690 -1 c0 -5 -4 -10 -10 -10 -5 0 -10 5 -10 10 0 6
5 10 10 10 6 0 10 -4 10 -10z m30 6 c0 -3 -4 -8 -10 -11 -5 -3 -10 -1 -10 4 0
6 5 11 10 11 6 0 10 -2 10 -4z m-3235 -16 c3 -5 1 -10 -4 -10 -6 0 -11 5 -11
10 0 6 2 10 4 10 3 0 8 -4 11 -10z m3709 -7 c-5 -5 -12 -12 -16 -18 -4 -6 -8
-2 -8 8 0 9 7 17 17 17 9 0 12 -3 7 -7z m-3604 -18 c0 -8 -4 -15 -10 -15 -5 0
-10 7 -10 15 0 8 5 15 10 15 6 0 10 -7 10 -15z m-280 -10 c-12 -15 -30 -12
-30 6 0 5 10 9 21 9 18 0 19 -2 9 -15z m575 -5 c-3 -6 -1 -10 4 -10 6 0 11 5
11 10 0 6 9 10 20 10 11 0 20 -7 20 -15 0 -8 -4 -15 -10 -15 -5 0 -10 6 -10
13 0 9 -2 9 -8 -1 -10 -15 -92 -13 -92 3 0 7 16 12 35 13 21 1 33 -3 30 -8z
m110 0 c3 -5 1 -10 -4 -10 -6 0 -11 5 -11 10 0 6 2 10 4 10 3 0 8 -4 11 -10z
m55 0 c0 -5 -4 -10 -10 -10 -5 0 -10 5 -10 10 0 6 5 10 10 10 6 0 10 -4 10
-10z m-830 -20 c0 -5 -7 -10 -15 -10 -8 0 -15 5 -15 10 0 6 7 10 15 10 8 0 15
-4 15 -10z m40 4 c0 -14 -31 -34 -52 -33 l-23 2 23 4 c12 2 22 11 22 19 0 8 7
14 15 14 8 0 15 -3 15 -6z m80 -24 c0 -5 -6 -7 -14 -4 -8 3 -17 0 -21 -5 -7
-12 -25 -5 -25 10 0 5 14 9 30 9 17 0 30 -4 30 -10z m500 -5 c0 -8 -4 -15 -10
-15 -5 0 -10 7 -10 15 0 8 5 15 10 15 6 0 10 -7 10 -15z m50 0 c0 -8 -9 -15
-20 -15 -11 0 -20 7 -20 15 0 8 9 15 20 15 11 0 20 -7 20 -15z m17 -7 c-3 -8
-6 -5 -6 6 -1 11 2 17 5 13 3 -3 4 -12 1 -19z m33 7 c0 -8 -4 -15 -10 -15 -5
0 -10 7 -10 15 0 8 5 15 10 15 6 0 10 -7 10 -15z m120 -14 c0 -12 -20 -25 -27
-18 -7 7 6 27 18 27 5 0 9 -4 9 -9z m-840 -11 c0 -5 -7 -10 -15 -10 -8 0 -15
5 -15 10 0 6 7 10 15 10 8 0 15 -4 15 -10z m31 -4 c-9 -11 -9 -15 1 -19 7 -3
1 -6 -14 -6 -21 -1 -26 -5 -21 -17 4 -11 2 -15 -7 -12 -22 7 -21 38 1 38 10 0
19 7 19 15 0 8 7 15 16 15 13 0 14 -3 5 -14z m399 -16 c0 -5 -5 -10 -11 -10
-5 0 -7 5 -4 10 3 6 8 10 11 10 2 0 4 -4 4 -10z m54 1 c3 -5 -1 -11 -9 -15 -9
-3 -15 0 -15 9 0 16 16 20 24 6z m46 -1 c0 -5 -4 -10 -10 -10 -5 0 -10 5 -10
10 0 6 5 10 10 10 6 0 10 -4 10 -10z m55 0 c3 -5 -1 -10 -9 -10 -9 0 -16 5
-16 10 0 6 4 10 9 10 6 0 13 -4 16 -10z m50 0 c-3 -5 -10 -10 -16 -10 -5 0 -9
5 -9 10 0 6 7 10 16 10 8 0 12 -4 9 -10z m55 0 c0 -5 -7 -10 -15 -10 -8 0 -15
5 -15 10 0 6 7 10 15 10 8 0 15 -4 15 -10z m50 0 c0 -5 -7 -10 -15 -10 -8 0
-15 5 -15 10 0 6 7 10 15 10 8 0 15 -4 15 -10z m-703 -26 c-3 -3 -12 -4 -19
-1 -8 3 -5 6 6 6 11 1 17 -2 13 -5z m3673 -58 c0 -11 -19 -15 -25 -6 -3 5 1
10 9 10 9 0 16 -2 16 -4z m223 -26 c-3 -11 -9 -20 -14 -20 -10 0 -12 24 -2 33
13 13 21 7 16 -13z m-166 4 c-3 -3 -12 -4 -19 -1 -8 3 -5 6 6 6 11 1 17 -2 13
-5z"/>
<path d="M1479 4093 c-13 -16 -12 -17 4 -4 16 13 21 21 13 21 -2 0 -10 -8 -17
-17z"/>
<path d="M557 3330 c3 -11 7 -20 9 -20 2 0 4 9 4 20 0 11 -4 20 -9 20 -5 0 -7
-9 -4 -20z"/>
<path d="M594 3335 c3 -23 12 -26 13 -5 1 11 -2 20 -7 20 -4 0 -7 -7 -6 -15z"/>
<path d="M512 3190 c-1 -16 1 -30 5 -30 5 0 9 14 9 30 1 17 -1 30 -5 30 -4 0
-8 -13 -9 -30z"/>
<path d="M2507 2023 c-14 -13 -7 -42 17 -70 13 -15 28 -25 32 -20 4 4 -3 17
-15 28 -12 12 -20 27 -18 33 6 16 -7 39 -16 29z"/>
<path d="M1395 2050 c-3 -5 -2 -10 4 -10 5 0 13 5 16 10 3 6 2 10 -4 10 -5 0
-13 -4 -16 -10z"/>
<path d="M1467 1940 c-4 -17 -2 -18 14 -9 22 11 25 29 5 29 -7 0 -16 -9 -19
-20z"/>
<path d="M1392 1938 c3 -7 13 -15 24 -17 16 -3 17 -1 5 13 -16 19 -34 21 -29
4z"/>
<path d="M3320 1407 c0 -3 15 -10 32 -16 18 -6 28 -7 23 -2 -12 10 -55 25 -55
18z"/>
</g>
</svg>
